{
  "accessors": [
    {
      "bufferView": 2,
      "componentType": 5126,
      "count": 878,
      "max": [
        2.549267530441284,
        1.2398102283477783,
        0.30417129397392273
      ],
      "min": [
        -0.1538085639476776,
        -0.1096666231751442,
        -0.2615695893764496
      ],
      "type": "VEC3"
    },
    {
      "bufferView": 2,
      "byteOffset": 10536,
      "componentType": 5126,
      "count": 878,
      "max": [
        1.0,
        1.0,
        0.9960558414459229
      ],
      "min": [
        -1.0,
        -1.0,
        -0.9989157319068909
      ],
      "type": "VEC3"
    },
    {
      "bufferView": 1,
      "componentType": 5126,
      "count": 878,
      "max": [
        0.6756452322006226,
        0.9959617257118225
      ],
      "min": [
        0.013450327329337597,
        0.046948254108428955
      ],
      "type": "VEC2"
    },
    {
      "bufferView": 1,
      "byteOffset": 7024,
      "componentType": 5126,
      "count": 878,
      "max": [
        0.6756452322006226,
        0.9959617257118225
      ],
      "min": [
        0.013450327329337597,
        0.046948254108428955
      ],
      "type": "VEC2"
    },
    {
      "bufferView": 1,
      "byteOffset": 14048,
      "componentType": 5126,
      "count": 878,
      "max": [
        0.6756452322006226,
        0.9959617257118225
      ],
      "min": [
        0.013450327329337597,
        0.046948254108428955
      ],
      "type": "VEC2"
    },
    {
      "bufferView": 0,
      "componentType": 5125,
      "count": 2244,
      "type": "SCALAR"
    },
    {
      "bufferView": 2,
      "byteOffset": 21072,
      "componentType": 5126,
      "count": 3202,
      "max": [
        1.8118577003479004,
        1.1043421030044556,
        0.5993887782096863
      ],
      "min": [
        -0.8908633589744568,
        -0.3501749038696289,
        -0.5538492202758789
      ],
      "type": "VEC3"
    },
    {
      "bufferView": 2,
      "byteOffset": 59496,
      "componentType": 5126,
      "count": 3202,
      "max": [
        1.0,
        1.0,
        1.0
      ],
      "min": [
        -1.0,
        -1.0,
        -1.0
      ],
      "type": "VEC3"
    },
    {
      "bufferView": 1,
      "byteOffset": 21072,
      "componentType": 5126,
      "count": 3202,
      "max": [
        0.4990251064300537,
        0.9972464442253113
      ],
      "min": [
        0.0006076949648559093,
        0.5002875924110413
      ],
      "type": "VEC2"
    },
    {
      "bufferView": 1,
      "byteOffset": 46688,
      "componentType": 5126,
      "count": 3202,
      "max": [
        0.4990251064300537,
        0.9972464442253113
      ],
      "min": [
        0.0006076949648559093,
        0.5002875924110413
      ],
      "type": "VEC2"
    },
    {
      "bufferView": 0,
      "byteOffset": 8976,
      "componentType": 5125,
      "count": 11235,
      "type": "SCALAR"
    },
    {
      "bufferView": 2,
      "byteOffset": 97920,
      "componentType": 5126,
      "count": 3821,
      "max": [
        1.889001727104187,
        1.3420400619506836,
        0.5402049422264099
      ],
      "min": [
        -1.8246548175811768,
        -0.5878727436065674,
        -0.653803288936615
      ],
      "type": "VEC3"
    },
    {
      "bufferView": 2,
      "byteOffset": 143772,
      "componentType": 5126,
      "count": 3821,
      "max": [
        0.999995768070221,
        1.0,
        1.0
      ],
      "min": [
        -1.0,
        -1.0,
        -1.0
      ],
      "type": "VEC3"
    },
    {
      "bufferView": 1,
      "byteOffset": 72304,
      "componentType": 5126,
      "count": 3821,
      "max": [
        0.9962098002433777,
        0.9986888766288757
      ],
      "min": [
        -1.6968621015548706,
        -0.32939088344573975
      ],
      "type": "VEC2"
    },
    {
      "bufferView": 1,
      "byteOffset": 102872,
      "componentType": 5126,
      "count": 3821,
      "max": [
        0.9962098002433777,
        0.9986888766288757
      ],
      "min": [
        -1.6968621015548706,
        -0.32939088344573975
      ],
      "type": "VEC2"
    },
    {
      "bufferView": 1,
      "byteOffset": 133440,
      "componentType": 5126,
      "count": 3821,
      "max": [
        0.9962098002433777,
        0.9986888766288757
      ],
      "min": [
        -1.6968621015548706,
        -0.32939088344573975
      ],
      "type": "VEC2"
    },
    {
      "bufferView": 0,
      "byteOffset": 53916,
      "componentType": 5125,
      "count": 10938,
      "type": "SCALAR"
    },
    {
      "bufferView": 2,
      "byteOffset": 189624,
      "componentType": 5126,
      "count": 1307,
      "max": [
        1.894328236579895,
        1.1816507577896118,
        0.6398709416389465
      ],
      "min": [
        -0.6997180581092834,
        -0.4274837374687195,
        -0.5516580939292908
      ],
      "type": "VEC3"
    },
    {
      "bufferView": 2,
      "byteOffset": 205308,
      "componentType": 5126,
      "count": 1307,
      "max": [
        0.9999634623527527,
        0.9996786117553711,
        0.9999999403953552
      ],
      "min": [
        -0.9577306509017944,
        -0.9996786117553711,
        -0.8534967303276062
      ],
      "type": "VEC3"
    },
    {
      "bufferView": 1,
      "byteOffset": 164008,
      "componentType": 5126,
      "count": 1307,
      "max": [
        0.7750012874603271,
        0.9744096398353577
      ],
      "min": [
        0.162221759557724,
        0.08434275537729263
      ],
      "type": "VEC2"
    },
    {
      "bufferView": 1,
      "byteOffset": 174464,
      "componentType": 5126,
      "count": 1307,
      "max": [
        0.7750012874603271,
        0.9744096398353577
      ],
      "min": [
        0.162221759557724,
        0.08434275537729263
      ],
      "type": "VEC2"
    },
    {
      "bufferView": 0,
      "byteOffset": 97668,
      "componentType": 5125,
      "count": 4530,
      "type": "SCALAR"
    },
    {
      "bufferView": 2,
      "byteOffset": 220992,
      "componentType": 5126,
      "count": 58,
      "max": [
        -1.873133659362793,
        1.1204472780227661,
        -0.11731205880641937
      ],
      "min": [
        -2.191662073135376,
        -0.36628013849258423,
        -0.20864135026931763
      ],
      "type": "VEC3"
    },
    {
      "bufferView": 2,
      "byteOffset": 221688,
      "componentType": 5126,
      "count": 58,
      "max": [
        -0.3519039452075958,
        0.9124144911766052,
        0.5466173887252808
      ],
      "min": [
        -0.9409059882164001,
        -0.912414014339447,
        0.08482946455478668
      ],
      "type": "VEC3"
    },
    {
      "bufferView": 1,
      "byteOffset": 184920,
      "componentType": 5126,
      "count": 58,
      "max": [
        0.8699562549591064,
        0.7139689326286316
      ],
      "min": [
        0.6064656376838684,
        0.4182615280151367
      ],
      "type": "VEC2"
    },
    {
      "bufferView": 0,
      "byteOffset": 115788,
      "componentType": 5125,
      "count": 186,
      "type": "SCALAR"
    },
    {
      "bufferView": 2,
      "byteOffset": 222384,
      "componentType": 5126,
      "count": 330,
      "max": [
        -0.8734520077705383,
        1.0447207689285278,
        0.13278385996818542
      ],
      "min": [
        -1.8157323598861694,
        -0.2905535399913788,
        -0.1713811606168747
      ],
      "type": "VEC3"
    },
    {
      "bufferView": 2,
      "byteOffset": 226344,
      "componentType": 5126,
      "count": 330,
      "max": [
        0.9138792753219604,
        0.9815443754196167,
        0.9887129664421082
      ],
      "min": [
        -0.9857713580131531,
        -0.9815428853034973,
        -0.9993614554405212
      ],
      "type": "VEC3"
    },
    {
      "bufferView": 1,
      "byteOffset": 185384,
      "componentType": 5126,
      "count": 330,
      "max": [
        0.7476215362548828,
        0.7845163345336914
      ],
      "min": [
        0.02168123424053192,
        0.006844682153314352
      ],
      "type": "VEC2"
    },
    {
      "bufferView": 1,
      "byteOffset": 188024,
      "componentType": 5126,
      "count": 330,
      "max": [
        0.7476215362548828,
        0.7845163345336914
      ],
      "min": [
        0.02168123424053192,
        0.006844682153314352
      ],
      "type": "VEC2"
    },
    {
      "bufferView": 0,
      "byteOffset": 116532,
      "componentType": 5125,
      "count": 1308,
      "type": "SCALAR"
    },
    {
      "bufferView": 2,
      "byteOffset": 230304,
      "componentType": 5126,
      "count": 50,
      "max": [
        1.347348690032959,
        1.1043422222137451,
        0.5201320648193359
      ],
      "min": [
        0.6361229419708252,
        -0.35017484426498413,
        0.14090119302272797
      ],
      "type": "VEC3"
    },
    {
      "bufferView": 2,
      "byteOffset": 230904,
      "componentType": 5126,
      "count": 50,
      "max": [
        0.045074667781591415,
        0.9026253819465637,
        0.46311935782432556
      ],
      "min": [
        -0.02171959914267063,
        -0.902625560760498,
        0.4298785626888275
      ],
      "type": "VEC3"
    },
    {
      "bufferView": 1,
      "byteOffset": 190664,
      "componentType": 5126,
      "count": 50,
      "max": [
        0.3593066334724426,
        0.1434045135974884
      ],
      "min": [
        0.2418428212404251,
        0.05506657809019089
      ],
      "type": "VEC2"
    },
    {
      "bufferView": 0,
      "byteOffset": 121764,
      "componentType": 5125,
      "count": 168,
      "type": "SCALAR"
    },
    {
      "bufferView": 2,
      "byteOffset": 231504,
      "componentType": 5126,
      "count": 80,
      "max": [
        2.1425445079803467,
        1.0541236400604248,
        0.4719252586364746
      ],
      "min": [
        1.8307427167892456,
        -0.2999565303325653,
        0.1313646137714386
      ],
      "type": "VEC3"
    },
    {
      "bufferView": 2,
      "byteOffset": 232464,
      "componentType": 5126,
      "count": 80,
      "max": [
        0.6661498546600342,
        0.9221951961517334,
        0.6937878131866455
      ],
      "min": [
        0.054056860506534576,
        -0.9221954345703125,
        0.24253347516059875
      ],
      "type": "VEC3"
    },
    {
      "bufferView": 1,
      "byteOffset": 191064,
      "componentType": 5126,
      "count": 80,
      "max": [
        0.9586349129676819,
        0.8076353073120117
      ],
      "min": [
        0.2510035037994385,
        0.41470953822135925
      ],
      "type": "VEC2"
    },
    {
      "bufferView": 0,
      "byteOffset": 122436,
      "componentType": 5125,
      "count": 240,
      "type": "SCALAR"
    },
    {
      "bufferView": 2,
      "byteOffset": 233424,
      "componentType": 5126,
      "count": 374,
      "max": [
        -0.0881686806678772,
        0.9237686991691589,
        -0.36181896924972534
      ],
      "min": [
        -0.7217938899993896,
        -0.7540032863616943,
        -0.7375002503395081
      ],
      "type": "VEC3"
    },
    {
      "bufferView": 2,
      "byteOffset": 237912,
      "componentType": 5126,
      "count": 374,
      "max": [
        -0.06655627489089966,
        0.9942010045051575,
        0.9364564418792725
      ],
      "min": [
        -0.994956910610199,
        -0.9942010045051575,
        -0.9867820143699646
      ],
      "type": "VEC3"
    },
    {
      "bufferView": 1,
      "byteOffset": 191704,
      "componentType": 5126,
      "count": 374,
      "max": [
        0.41974517703056335,
        0.9939913153648376
      ],
      "min": [
        0.12482848763465881,
        0.17002029716968536
      ],
      "type": "VEC2"
    },
    {
      "bufferView": 1,
      "byteOffset": 194696,
      "componentType": 5126,
      "count": 374,
      "max": [
        0.41974517703056335,
        0.9939913153648376
      ],
      "min": [
        0.12482848763465881,
        0.17002029716968536
      ],
      "type": "VEC2"
    },
    {
      "bufferView": 0,
      "byteOffset": 123396,
      "componentType": 5125,
      "count": 1500,
      "type": "SCALAR"
    },
    {
      "bufferView": 2,
      "byteOffset": 242400,
      "componentType": 5126,
      "count": 376,
      "max": [
        -0.08816879987716675,
        0.9237688779830933,
        -0.36181890964508057
      ],
      "min": [
        -0.7144818305969238,
        -0.7540033459663391,
        -0.8181053400039673
      ],
      "type": "VEC3"
    },
    {
      "bufferView": 2,
      "byteOffset": 246912,
      "componentType": 5126,
      "count": 376,
      "max": [
        1.0,
        0.9526305198669434,
        1.0
      ],
      "min": [
        -1.0,
        -0.9526306390762329,
        -1.0
      ],
      "type": "VEC3"
    },
    {
      "bufferView": 1,
      "byteOffset": 197688,
      "componentType": 5126,
      "count": 376,
      "max": [
        0.9863080382347107,
        0.9991279244422913
      ],
      "min": [
        0.0063859522342681885,
        0.04216578230261803
      ],
      "type": "VEC2"
    },
    {
      "bufferView": 1,
      "byteOffset": 200696,
      "componentType": 5126,
      "count": 376,
      "max": [
        0.9863080382347107,
        0.9991279244422913
      ],
      "min": [
        0.0063859522342681885,
        0.04216578230261803
      ],
      "type": "VEC2"
    },
    {
      "bufferView": 1,
      "byteOffset": 203704,
      "componentType": 5126,
      "count": 376,
      "max": [
        0.9863080382347107,
        0.9991279244422913
      ],
      "min": [
        0.0063859522342681885,
        0.04216578230261803
      ],
      "type": "VEC2"
    },
    {
      "bufferView": 0,
      "byteOffset": 129396,
      "componentType": 5125,
      "count": 1152,
      "type": "SCALAR"
    },
    {
      "bufferView": 2,
      "byteOffset": 251424,
      "componentType": 5126,
      "count": 374,
      "max": [
        2.016834259033203,
        1.2128493785858154,
        -0.19154755771160126
      ],
      "min": [
        1.5300730466842651,
        -0.45868241786956787,
        -0.5569257736206055
      ],
      "type": "VEC3"
    },
    {
      "bufferView": 2,
      "byteOffset": 255912,
      "componentType": 5126,
      "count": 374,
      "max": [
        0.9983485341072083,
        0.9911355376243591,
        0.9995419383049011
      ],
      "min": [
        -0.1257086992263794,
        -0.9911353588104248,
        -0.8459635972976685
      ],
      "type": "VEC3"
    },
    {
      "bufferView": 1,
      "byteOffset": 206712,
      "componentType": 5126,
      "count": 374,
      "max": [
        0.42930132150650024,
        0.08390304446220398
      ],
      "min": [
        0.11791601777076721,
        0.010415934026241302
      ],
      "type": "VEC2"
    },
    {
      "bufferView": 1,
      "byteOffset": 209704,
      "componentType": 5126,
      "count": 374,
      "max": [
        0.42930132150650024,
        0.08390304446220398
      ],
      "min": [
        0.11791601777076721,
        0.010415934026241302
      ],
      "type": "VEC2"
    },
    {
      "bufferView": 0,
      "byteOffset": 134004,
      "componentType": 5125,
      "count": 1818,
      "type": "SCALAR"
    },
    {
      "bufferView": 2,
      "byteOffset": 260400,
      "componentType": 5126,
      "count": 183,
      "max": [
        1.9702423810958862,
        1.2128493785858154,
        -0.19275681674480438
      ],
      "min": [
        1.4828578233718872,
        -0.4586822986602783,
        -0.5569260120391846
      ],
      "type": "VEC3"
    },
    {
      "bufferView": 2,
      "byteOffset": 262596,
      "componentType": 5126,
      "count": 183,
      "max": [
        0.9838032126426697,
        0.9171841740608215,
        0.569321870803833
      ],
      "min": [
        -0.99854576587677,
        -0.9171831607818604,
        -0.822030782699585
      ],
      "type": "VEC3"
    },
    {
      "bufferView": 1,
      "byteOffset": 212696,
      "componentType": 5126,
      "count": 183,
      "max": [
        0.9941264390945435,
        0.9397373199462891
      ],
      "min": [
        0.8090549111366272,
        0.09233053773641586
      ],
      "type": "VEC2"
    },
    {
      "bufferView": 1,
      "byteOffset": 214160,
      "componentType": 5126,
      "count": 183,
      "max": [
        0.9941264390945435,
        0.9397373199462891
      ],
      "min": [
        0.8090549111366272,
        0.09233053773641586
      ],
      "type": "VEC2"
    },
    {
      "bufferView": 1,
      "byteOffset": 215624,
      "componentType": 5126,
      "count": 183,
      "max": [
        0.9941264390945435,
        0.9397373199462891
      ],
      "min": [
        0.8090549111366272,
        0.09233053773641586
      ],
      "type": "VEC2"
    },
    {
      "bufferView": 0,
      "byteOffset": 141276,
      "componentType": 5125,
      "count": 726,
      "type": "SCALAR"
    },
    {
      "bufferView": 2,
      "byteOffset": 264792,
      "componentType": 5126,
      "count": 780,
      "max": [
        1.913155198097229,
        1.09768545627594,
        0.5814511775970459
      ],
      "min": [
        -0.8995989561080933,
        -0.34351736307144165,
        -0.6573545932769775
      ],
      "type": "VEC3"
    },
    {
      "bufferView": 2,
      "byteOffset": 274152,
      "componentType": 5126,
      "count": 780,
      "max": [
        1.0,
        1.0,
        0.9943110346794128
      ],
      "min": [
        -1.0,
        -1.0,
        -0.9943110346794128
      ],
      "type": "VEC3"
    },
    {
      "bufferView": 1,
      "byteOffset": 217088,
      "componentType": 5126,
      "count": 780,
      "max": [
        0.9917179346084595,
        0.6667425632476807
      ],
      "min": [
        0.06675934791564941,
        0.047682542353868484
      ],
      "type": "VEC2"
    },
    {
      "bufferView": 1,
      "byteOffset": 223328,
      "componentType": 5126,
      "count": 780,
      "max": [
        0.9917179346084595,
        0.6667425632476807
      ],
      "min": [
        0.06675934791564941,
        0.047682542353868484
      ],
      "type": "VEC2"
    },
    {
      "bufferView": 1,
      "byteOffset": 229568,
      "componentType": 5126,
      "count": 780,
      "max": [
        0.9917179346084595,
        0.6667425632476807
      ],
      "min": [
        0.06675934791564941,
        0.047682542353868484
      ],
      "type": "VEC2"
    },
    {
      "bufferView": 0,
      "byteOffset": 144180,
      "componentType": 5125,
      "count": 2460,
      "type": "SCALAR"
    },
    {
      "bufferView": 2,
      "byteOffset": 283512,
      "componentType": 5126,
      "count": 1312,
      "max": [
        1.7851998805999756,
        1.2234805822372437,
        0.5689034461975098
      ],
      "min": [
        -1.6177023649215698,
        -0.46932369470596313,
        -0.6538035869598389
      ],
      "type": "VEC3"
    },
    {
      "bufferView": 2,
      "byteOffset": 299256,
      "componentType": 5126,
      "count": 1312,
      "max": [
        0.999788761138916,
        0.9999029040336609,
        0.9998220801353455
      ],
      "min": [
        -0.8272127509117126,
        -0.9999029636383057,
        -0.9988930821418762
      ],
      "type": "VEC3"
    },
    {
      "bufferView": 1,
      "byteOffset": 235808,
      "componentType": 5126,
      "count": 1312,
      "max": [
        0.8341726660728455,
        0.9936043620109558
      ],
      "min": [
        0.20961864292621613,
        0.23761242628097534
      ],
      "type": "VEC2"
    },
    {
      "bufferView": 1,
      "byteOffset": 246304,
      "componentType": 5126,
      "count": 1312,
      "max": [
        0.8341726660728455,
        0.9936043620109558
      ],
      "min": [
        0.20961864292621613,
        0.23761242628097534
      ],
      "type": "VEC2"
    },
    {
      "bufferView": 0,
      "byteOffset": 154020,
      "componentType": 5125,
      "count": 4926,
      "type": "SCALAR"
    },
    {
      "bufferView": 2,
      "byteOffset": 315000,
      "componentType": 5126,
      "count": 82,
      "max": [
        -0.18906818330287933,
        0.973646879196167,
        0.5262650847434998
      ],
      "min": [
        -0.8680766820907593,
        -0.2194797247648239,
        0.17953865230083466
      ],
      "type": "VEC3"
    },
    {
      "bufferView": 2,
      "byteOffset": 315984,
      "componentType": 5126,
      "count": 82,
      "max": [
        -0.43241965770721436,
        0.15031839907169342,
        0.889093816280365
      ],
      "min": [
        -0.4905688762664795,
        -0.1503186672925949,
        0.8642385005950928
      ],
      "type": "VEC3"
    },
    {
      "bufferView": 1,
      "byteOffset": 256800,
      "componentType": 5126,
      "count": 82,
      "max": [
        0.31492823362350464,
        0.47176221013069153
      ],
      "min": [
        0.030937064439058304,
        0.3473946154117584
      ],
      "type": "VEC2"
    },
    {
      "bufferView": 0,
      "byteOffset": 173724,
      "componentType": 5125,
      "count": 366,
      "type": "SCALAR"
    },
    {
      "bufferView": 2,
      "byteOffset": 316968,
      "componentType": 5126,
      "count": 60,
      "max": [
        1.7885589599609375,
        0.8979145288467407,
        0.4795197546482086
      ],
      "min": [
        1.49430513381958,
        -0.1437472403049469,
        0.16827820241451263
      ],
      "type": "VEC3"
    },
    {
      "bufferView": 2,
      "byteOffset": 317688,
      "componentType": 5126,
      "count": 60,
      "max": [
        0.8542520999908447,
        0.22586403787136078,
        0.7489826679229736
      ],
      "min": [
        0.6625896096229553,
        -0.22586430609226227,
        0.47238415479660034
      ],
      "type": "VEC3"
    },
    {
      "bufferView": 1,
      "byteOffset": 257456,
      "componentType": 5126,
      "count": 60,
      "max": [
        0.4842977225780487,
        0.47238314151763916
      ],
      "min": [
        0.35684746503829956,
        0.2046457976102829
      ],
      "type": "VEC2"
    },
    {
      "bufferView": 0,
      "byteOffset": 175188,
      "componentType": 5125,
      "count": 258,
      "type": "SCALAR"
    },
    {
      "bufferView": 2,
      "byteOffset": 318408,
      "componentType": 5126,
      "count": 19,
      "max": [
        0.5235047340393066,
        -0.16342949867248535,
        0.5123044848442078
      ],
      "min": [
        -0.4500342011451721,
        -0.3484884202480316,
        0.05723429471254349
      ],
      "type": "VEC3"
    },
    {
      "bufferView": 2,
      "byteOffset": 318636,
      "componentType": 5126,
      "count": 19,
      "max": [
        0.008005151525139809,
        -0.9084680080413818,
        0.4179527461528778
      ],
      "min": [
        -0.013377119787037373,
        -0.9350300431251526,
        0.3544451892375946
      ],
      "type": "VEC3"
    },
    {
      "bufferView": 1,
      "byteOffset": 257936,
      "componentType": 5126,
      "count": 19,
      "max": [
        0.18376846611499786,
        0.1419432908296585
      ],
      "min": [
        0.022981835529208183,
        0.03593944013118744
      ],
      "type": "VEC2"
    },
    {
      "bufferView": 0,
      "byteOffset": 176220,
      "componentType": 5125,
      "count": 60,
      "type": "SCALAR"
    },
    {
      "bufferView": 2,
      "byteOffset": 318864,
      "componentType": 5126,
      "count": 19,
      "max": [
        0.5235047340393066,
        1.1026557683944702,
        0.5123044848442078
      ],
      "min": [
        -0.4500342011451721,
        0.9175968170166016,
        0.05723429471254349
      ],
      "type": "VEC3"
    },
    {
      "bufferView": 2,
      "byteOffset": 319092,
      "componentType": 5126,
      "count": 19,
      "max": [
        0.00800565630197525,
        0.935029923915863,
        0.4179529845714569
      ],
      "min": [
        -0.013377071358263493,
        0.9084678888320923,
        0.3544456362724304
      ],
      "type": "VEC3"
    },
    {
      "bufferView": 1,
      "byteOffset": 258088,
      "componentType": 5126,
      "count": 19,
      "max": [
        0.18376842141151428,
        0.14194326102733612
      ],
      "min": [
        0.02298181690275669,
        0.035939376801252365
      ],
      "type": "VEC2"
    },
    {
      "bufferView": 0,
      "byteOffset": 176460,
      "componentType": 5125,
      "count": 60,
      "type": "SCALAR"
    },
    {
      "bufferView": 2,
      "byteOffset": 319320,
      "componentType": 5126,
      "count": 159,
      "max": [
        -0.14784595370292664,
        0.22419877350330353,
        0.206985741853714
      ],
      "min": [
        -0.29953038692474365,
        -0.1301821768283844,
        -0.1303672343492508
      ],
      "type": "VEC3"
    },
    {
      "bufferView": 2,
      "byteOffset": 321228,
      "componentType": 5126,
      "count": 159,
      "max": [
        0.97431480884552,
        0.9848095774650574,
        0.9808441400527954
      ],
      "min": [
        -0.9651055335998535,
        -0.9848093390464783,
        -0.9374896287918091
      ],
      "type": "VEC3"
    },
    {
      "bufferView": 1,
      "byteOffset": 258240,
      "componentType": 5126,
      "count": 159,
      "max": [
        0.4987980127334595,
        0.9986944198608398
      ],
      "min": [
        0.39424875378608704,
        0.8285042643547058
      ],
      "type": "VEC2"
    },
    {
      "bufferView": 1,
      "byteOffset": 259512,
      "componentType": 5126,
      "count": 159,
      "max": [
        0.4987980127334595,
        0.9986944198608398
      ],
      "min": [
        0.39424875378608704,
        0.8285042643547058
      ],
      "type": "VEC2"
    },
    {
      "bufferView": 0,
      "byteOffset": 176700,
      "componentType": 5125,
      "count": 771,
      "type": "SCALAR"
    },
    {
      "bufferView": 2,
      "byteOffset": 323136,
      "componentType": 5126,
      "count": 78,
      "max": [
        -2.0227508544921875,
        1.038445234298706,
        -0.11731205880641937
      ],
      "min": [
        -2.191662073135376,
        -0.2842780351638794,
        -0.20864135026931763
      ],
      "type": "VEC3"
    },
    {
      "bufferView": 2,
      "byteOffset": 324072,
      "componentType": 5126,
      "count": 78,
      "max": [
        -0.569180428981781,
        0.636273980140686,
        0.7194745540618896
      ],
      "min": [
        -0.9722732901573181,
        -0.6362740993499756,
        -0.38771679997444153
      ],
      "type": "VEC3"
    },
    {
      "bufferView": 1,
      "byteOffset": 260784,
      "componentType": 5126,
      "count": 78,
      "max": [
        0.7102354764938354,
        0.781840980052948
      ],
      "min": [
        0.5043614506721497,
        0.7252283096313477
      ],
      "type": "VEC2"
    },
    {
      "bufferView": 0,
      "byteOffset": 179784,
      "componentType": 5125,
      "count": 372,
      "type": "SCALAR"
    },
    {
      "bufferView": 2,
      "byteOffset": 325008,
      "componentType": 5126,
      "count": 48,
      "max": [
        2.1425445079803467,
        1.1204472780227661,
        0.22144180536270142
      ],
      "min": [
        -1.1907799243927002,
        -0.3662801682949066,
        -0.2086414098739624
      ],
      "type": "VEC3"
    },
    {
      "bufferView": 2,
      "byteOffset": 325584,
      "componentType": 5126,
      "count": 48,
      "max": [
        0.6869294047355652,
        0.9744561910629272,
        0.792094349861145
      ],
      "min": [
        -0.7634636163711548,
        -0.974456250667572,
        -0.3635070025920868
      ],
      "type": "VEC3"
    },
    {
      "bufferView": 1,
      "byteOffset": 261408,
      "componentType": 5126,
      "count": 48,
      "max": [
        0.16585317254066467,
        0.7474851012229919
      ],
      "min": [
        0.08424968272447586,
        0.6981823444366455
      ],
      "type": "VEC2"
    },
    {
      "bufferView": 0,
      "byteOffset": 181272,
      "componentType": 5125,
      "count": 132,
      "type": "SCALAR"
    },
    {
      "bufferView": 2,
      "byteOffset": 326160,
      "componentType": 5126,
      "count": 32,
      "max": [
        2.070484161376953,
        1.0244321823120117,
        0.4719252586364746
      ],
      "min": [
        1.8307427167892456,
        -0.2702651023864746,
        0.26858362555503845
      ],
      "type": "VEC3"
    },
    {
      "bufferView": 2,
      "byteOffset": 326544,
      "componentType": 5126,
      "count": 32,
      "max": [
        0.7373892664909363,
        0.942484438419342,
        0.8426132202148438
      ],
      "min": [
        0.2433110773563385,
        -0.9424847960472107,
        -0.17249920964241028
      ],
      "type": "VEC3"
    },
    {
      "bufferView": 1,
      "byteOffset": 261792,
      "componentType": 5126,
      "count": 32,
      "max": [
        0.8596433997154236,
        0.629244327545166
      ],
      "min": [
        0.7034743428230286,
        0.5735170245170593
      ],
      "type": "VEC2"
    },
    {
      "bufferView": 0,
      "byteOffset": 181800,
      "componentType": 5125,
      "count": 96,
      "type": "SCALAR"
    },
    {
      "bufferView": 2,
      "byteOffset": 326928,
      "componentType": 5126,
      "count": 18,
      "max": [
        2.0955398082733154,
        1.0412291288375854,
        0.27014002203941345
      ],
      "min": [
        1.945171594619751,
        -0.28706201910972595,
        0.21514052152633667
      ],
      "type": "VEC3"
    },
    {
      "bufferView": 2,
      "byteOffset": 327144,
      "componentType": 5126,
      "count": 18,
      "max": [
        0.624282717704773,
        0.8615624904632568,
        0.8140078783035278
      ],
      "min": [
        0.267097532749176,
        -0.8615634441375732,
        -0.34698572754859924
      ],
      "type": "VEC3"
    },
    {
      "bufferView": 1,
      "byteOffset": 262048,
      "componentType": 5126,
      "count": 18,
      "max": [
        0.6908490657806396,
        0.22859781980514526
      ],
      "min": [
        0.6203747391700745,
        0.18479615449905396
      ],
      "type": "VEC2"
    },
    {
      "bufferView": 0,
      "byteOffset": 182184,
      "componentType": 5125,
      "count": 48,
      "type": "SCALAR"
    },
    {
      "bufferView": 2,
      "byteOffset": 327360,
      "componentType": 5126,
      "count": 985,
      "max": [
        0.3838624954223633,
        0.3839276432991028,
        -0.004238879308104515
      ],
      "min": [
        -0.3838622570037842,
        -0.38379716873168945,
        -0.37973183393478394
      ],
      "type": "VEC3"
    },
    {
      "bufferView": 2,
      "byteOffset": 339180,
      "componentType": 5126,
      "count": 985,
      "max": [
        1.0,
        0.9999307990074158,
        1.0
      ],
      "min": [
        -1.0,
        -0.9999307990074158,
        -1.0
      ],
      "type": "VEC3"
    },
    {
      "bufferView": 1,
      "byteOffset": 262192,
      "componentType": 5126,
      "count": 985,
      "max": [
        0.988741934299469,
        0.9882569909095764
      ],
      "min": [
        0.015149518847465515,
        0.007186064030975103
      ],
      "type": "VEC2"
    },
    {
      "bufferView": 1,
      "byteOffset": 270072,
      "componentType": 5126,
      "count": 985,
      "max": [
        0.988741934299469,
        0.9882569909095764
      ],
      "min": [
        0.015149518847465515,
        0.007186064030975103
      ],
      "type": "VEC2"
    },
    {
      "bufferView": 0,
      "byteOffset": 182376,
      "componentType": 5125,
      "count": 3471,
      "type": "SCALAR"
    },
    {
      "bufferView": 2,
      "byteOffset": 351000,
      "componentType": 5126,
      "count": 985,
      "max": [
        0.3838624954223633,
        0.3839276432991028,
        -0.004238879308104515
      ],
      "min": [
        -0.3838622570037842,
        -0.38379716873168945,
        -0.37973183393478394
      ],
      "type": "VEC3"
    },
    {
      "bufferView": 2,
      "byteOffset": 362820,
      "componentType": 5126,
      "count": 985,
      "max": [
        1.0,
        0.9999307990074158,
        1.0
      ],
      "min": [
        -1.0,
        -0.9999307990074158,
        -1.0
      ],
      "type": "VEC3"
    },
    {
      "bufferView": 1,
      "byteOffset": 277952,
      "componentType": 5126,
      "count": 985,
      "max": [
        0.988741934299469,
        0.9882569909095764
      ],
      "min": [
        0.015149518847465515,
        0.007186064030975103
      ],
      "type": "VEC2"
    },
    {
      "bufferView": 1,
      "byteOffset": 285832,
      "componentType": 5126,
      "count": 985,
      "max": [
        0.988741934299469,
        0.9882569909095764
      ],
      "min": [
        0.015149518847465515,
        0.007186064030975103
      ],
      "type": "VEC2"
    },
    {
      "bufferView": 0,
      "byteOffset": 196260,
      "componentType": 5125,
      "count": 3471,
      "type": "SCALAR"
    },
    {
      "bufferView": 2,
      "byteOffset": 374640,
      "componentType": 5126,
      "count": 985,
      "max": [
        0.3838624954223633,
        0.3839276432991028,
        -0.004238879308104515
      ],
      "min": [
        -0.3838622570037842,
        -0.38379716873168945,
        -0.37973183393478394
      ],
      "type": "VEC3"
    },
    {
      "bufferView": 2,
      "byteOffset": 386460,
      "componentType": 5126,
      "count": 985,
      "max": [
        1.0,
        0.9999307990074158,
        1.0
      ],
      "min": [
        -1.0,
        -0.9999307990074158,
        -1.0
      ],
      "type": "VEC3"
    },
    {
      "bufferView": 1,
      "byteOffset": 293712,
      "componentType": 5126,
      "count": 985,
      "max": [
        0.988741934299469,
        0.9882569909095764
      ],
      "min": [
        0.015149518847465515,
        0.007186064030975103
      ],
      "type": "VEC2"
    },
    {
      "bufferView": 1,
      "byteOffset": 301592,
      "componentType": 5126,
      "count": 985,
      "max": [
        0.988741934299469,
        0.9882569909095764
      ],
      "min": [
        0.015149518847465515,
        0.007186064030975103
      ],
      "type": "VEC2"
    },
    {
      "bufferView": 0,
      "byteOffset": 210144,
      "componentType": 5125,
      "count": 3471,
      "type": "SCALAR"
    },
    {
      "bufferView": 2,
      "byteOffset": 398280,
      "componentType": 5126,
      "count": 985,
      "max": [
        0.3838624954223633,
        0.3839276432991028,
        -0.004238879308104515
      ],
      "min": [
        -0.3838622570037842,
        -0.38379716873168945,
        -0.37973183393478394
      ],
      "type": "VEC3"
    },
    {
      "bufferView": 2,
      "byteOffset": 410100,
      "componentType": 5126,
      "count": 985,
      "max": [
        1.0,
        0.9999307990074158,
        1.0
      ],
      "min": [
        -1.0,
        -0.9999307990074158,
        -1.0
      ],
      "type": "VEC3"
    },
    {
      "bufferView": 1,
      "byteOffset": 309472,
      "componentType": 5126,
      "count": 985,
      "max": [
        0.988741934299469,
        0.9882569909095764
      ],
      "min": [
        0.015149518847465515,
        0.007186064030975103
      ],
      "type": "VEC2"
    },
    {
      "bufferView": 1,
      "byteOffset": 317352,
      "componentType": 5126,
      "count": 985,
      "max": [
        0.988741934299469,
        0.9882569909095764
      ],
      "min": [
        0.015149518847465515,
        0.007186064030975103
      ],
      "type": "VEC2"
    },
    {
      "bufferView": 0,
      "byteOffset": 224028,
      "componentType": 5125,
      "count": 3471,
      "type": "SCALAR"
    },
    {
      "bufferView": 2,
      "byteOffset": 421920,
      "componentType": 5126,
      "count": 42,
      "max": [
        1.047045111656189,
        -0.9429017901420593,
        -0.29973751306533813
      ],
      "min": [
        -0.03940463066101074,
        -1.0549527406692505,
        -3.957306146621704
      ],
      "type": "VEC3"
    },
    {
      "bufferView": 2,
      "byteOffset": 422424,
      "componentType": 5126,
      "count": 42,
      "max": [
        0.2666366696357727,
        0.10842521488666534,
        0.9800711870193481
      ],
      "min": [
        -0.2806853950023651,
        -0.05625973641872406,
        -0.981289803981781
      ],
      "type": "VEC3"
    },
    {
      "bufferView": 1,
      "byteOffset": 325232,
      "componentType": 5126,
      "count": 42,
      "max": [
        0.7249412536621094,
        0.8719178438186646
      ],
      "min": [
        0.23114505410194397,
        0.006381056737154722
      ],
      "type": "VEC2"
    },
    {
      "bufferView": 1,
      "byteOffset": 325568,
      "componentType": 5126,
      "count": 42,
      "max": [
        0.7249412536621094,
        0.8719178438186646
      ],
      "min": [
        0.23114505410194397,
        0.006381056737154722
      ],
      "type": "VEC2"
    },
    {
      "bufferView": 0,
      "byteOffset": 237912,
      "componentType": 5125,
      "count": 66,
      "type": "SCALAR"
    },
    {
      "bufferView": 2,
      "byteOffset": 422928,
      "componentType": 5126,
      "count": 96,
      "max": [
        -0.3421662151813507,
        0.5598644614219666,
        0.004290614277124405
      ],
      "min": [
        -0.642166256904602,
        0.4098644554615021,
        0.0
      ],
      "type": "VEC3"
    },
    {
      "bufferView": 2,
      "byteOffset": 424080,
      "componentType": 5126,
      "count": 96,
      "max": [
        0.8277473449707031,
        0.8206135630607605,
        1.0
      ],
      "min": [
        -0.8277504444122314,
        -0.820611298084259,
        -1.0
      ],
      "type": "VEC3"
    },
    {
      "bufferView": 1,
      "byteOffset": 325904,
      "componentType": 5126,
      "count": 96,
      "max": [
        0.9676456451416016,
        1.0
      ],
      "min": [
        0.0,
        0.13188180327415466
      ],
      "type": "VEC2"
    },
    {
      "bufferView": 1,
      "byteOffset": 326672,
      "componentType": 5126,
      "count": 96,
      "max": [
        0.9676456451416016,
        1.0
      ],
      "min": [
        0.0,
        0.13188180327415466
      ],
      "type": "VEC2"
    },
    {
      "bufferView": 1,
      "byteOffset": 327440,
      "componentType": 5126,
      "count": 96,
      "max": [
        0.9676456451416016,
        1.0
      ],
      "min": [
        0.0,
        0.13188180327415466
      ],
      "type": "VEC2"
    },
    {
      "bufferView": 0,
      "byteOffset": 238176,
      "componentType": 5125,
      "count": 240,
      "type": "SCALAR"
    },
    {
      "bufferView": 2,
      "byteOffset": 425232,
      "componentType": 5126,
      "count": 89,
      "max": [
        0.18881124258041382,
        0.10234469920396805,
        -0.16771270334720612
      ],
      "min": [
        0.11573274433612823,
        -0.1004665270447731,
        -0.2098321169614792
      ],
      "type": "VEC3"
    },
    {
      "bufferView": 2,
      "byteOffset": 426300,
      "componentType": 5126,
      "count": 89,
      "max": [
        0.9937362670898438,
        1.0,
        1.0
      ],
      "min": [
        -1.0,
        -1.0,
        -5.075371518614702e-07
      ],
      "type": "VEC3"
    },
    {
      "bufferView": 1,
      "byteOffset": 328208,
      "componentType": 5126,
      "count": 89,
      "max": [
        0.28311872482299805,
        0.7138683199882507
      ],
      "min": [
        0.17776015400886536,
        0.46253782510757446
      ],
      "type": "VEC2"
    },
    {
      "bufferView": 1,
      "byteOffset": 328920,
      "componentType": 5126,
      "count": 89,
      "max": [
        0.28311872482299805,
        0.7138683199882507
      ],
      "min": [
        0.17776015400886536,
        0.46253782510757446
      ],
      "type": "VEC2"
    },
    {
      "bufferView": 0,
      "byteOffset": 239136,
      "componentType": 5125,
      "count": 171,
      "type": "SCALAR"
    },
    {
      "bufferView": 2,
      "byteOffset": 427368,
      "componentType": 5126,
      "count": 89,
      "max": [
        0.18881124258041382,
        0.10234469920396805,
        -0.16771270334720612
      ],
      "min": [
        0.11573274433612823,
        -0.1004665270447731,
        -0.2098321169614792
      ],
      "type": "VEC3"
    },
    {
      "bufferView": 2,
      "byteOffset": 428436,
      "componentType": 5126,
      "count": 89,
      "max": [
        0.9937362670898438,
        1.0,
        1.0
      ],
      "min": [
        -1.0,
        -1.0,
        -5.075371518614702e-07
      ],
      "type": "VEC3"
    },
    {
      "bufferView": 1,
      "byteOffset": 329632,
      "componentType": 5126,
      "count": 89,
      "max": [
        0.28311872482299805,
        0.7138683199882507
      ],
      "min": [
        0.17776015400886536,
        0.46253782510757446
      ],
      "type": "VEC2"
    },
    {
      "bufferView": 1,
      "byteOffset": 330344,
      "componentType": 5126,
      "count": 89,
      "max": [
        0.28311872482299805,
        0.7138683199882507
      ],
      "min": [
        0.17776015400886536,
        0.46253782510757446
      ],
      "type": "VEC2"
    },
    {
      "bufferView": 0,
      "byteOffset": 239820,
      "componentType": 5125,
      "count": 171,
      "type": "SCALAR"
    },
    {
      "bufferView": 2,
      "byteOffset": 429504,
      "componentType": 5126,
      "count": 89,
      "max": [
        0.18881124258041382,
        0.10234469920396805,
        -0.16771270334720612
      ],
      "min": [
        0.11573274433612823,
        -0.1004665270447731,
        -0.2098321169614792
      ],
      "type": "VEC3"
    },
    {
      "bufferView": 2,
      "byteOffset": 430572,
      "componentType": 5126,
      "count": 89,
      "max": [
        0.9937362670898438,
        1.0,
        1.0
      ],
      "min": [
        -1.0,
        -1.0,
        -5.075371518614702e-07
      ],
      "type": "VEC3"
    },
    {
      "bufferView": 1,
      "byteOffset": 331056,
      "componentType": 5126,
      "count": 89,
      "max": [
        0.28311872482299805,
        0.7138683199882507
      ],
      "min": [
        0.17776015400886536,
        0.46253782510757446
      ],
      "type": "VEC2"
    },
    {
      "bufferView": 1,
      "byteOffset": 331768,
      "componentType": 5126,
      "count": 89,
      "max": [
        0.28311872482299805,
        0.7138683199882507
      ],
      "min": [
        0.17776015400886536,
        0.46253782510757446
      ],
      "type": "VEC2"
    },
    {
      "bufferView": 0,
      "byteOffset": 240504,
      "componentType": 5125,
      "count": 171,
      "type": "SCALAR"
    },
    {
      "bufferView": 2,
      "byteOffset": 431640,
      "componentType": 5126,
      "count": 89,
      "max": [
        0.18881124258041382,
        0.10234469920396805,
        -0.16771270334720612
      ],
      "min": [
        0.11573274433612823,
        -0.1004665270447731,
        -0.2098321169614792
      ],
      "type": "VEC3"
    },
    {
      "bufferView": 2,
      "byteOffset": 432708,
      "componentType": 5126,
      "count": 89,
      "max": [
        0.9937362670898438,
        1.0,
        1.0
      ],
      "min": [
        -1.0,
        -1.0,
        -5.075371518614702e-07
      ],
      "type": "VEC3"
    },
    {
      "bufferView": 1,
      "byteOffset": 332480,
      "componentType": 5126,
      "count": 89,
      "max": [
        0.28311872482299805,
        0.7138683199882507
      ],
      "min": [
        0.17776015400886536,
        0.46253782510757446
      ],
      "type": "VEC2"
    },
    {
      "bufferView": 1,
      "byteOffset": 333192,
      "componentType": 5126,
      "count": 89,
      "max": [
        0.28311872482299805,
        0.7138683199882507
      ],
      "min": [
        0.17776015400886536,
        0.46253782510757446
      ],
      "type": "VEC2"
    },
    {
      "bufferView": 0,
      "byteOffset": 241188,
      "componentType": 5125,
      "count": 171,
      "type": "SCALAR"
    }
  ],
  "asset": {
    "extras": {
      "author": "Daniel Zhabotinsky (https://sketchfab.com/DanielZhabotinsky)",
      "license": "SKETCHFAB Standard (https://sketchfab.com/licenses)",
      "source": "https://sketchfab.com/3d-models/milano-95-racemod-low-poly-model-e1213e8029bf40738987f3f3230d542e",
      "title": "Milano '95 Racemod - Low poly model"
    },
    "generator": "Sketchfab-16.74.0",
    "version": "2.0"
  },
  "bufferViews": [
    {
      "buffer": 0,
      "byteLength": 241872,
      "name": "floatBufferViews",
      "target": 34963
    },
    {
      "buffer": 0,
      "byteLength": 333904,
      "byteOffset": 241872,
      "byteStride": 8,
      "name": "floatBufferViews",
      "target": 34962
    },
    {
      "buffer": 0,
      "byteLength": 433776,
      "byteOffset": 575776,
      "byteStride": 12,
      "name": "floatBufferViews",
      "target": 34962
    }
  ],
  "buffers": [
    {
      "byteLength": 1009552,
      "uri": "scene.bin"
    }
  ],
  "extensionsUsed": [
    "KHR_materials_specular",
    "KHR_texture_transform",
    "KHR_materials_clearcoat"
  ],
  "images": [
    {
      "uri": "textures/UCB_BOTTOM_baseColor.jpeg"
    },
    {
      "uri": "textures/UCB_BOTTOM_metallicRoughness.png"
    },
    {
      "uri": "textures/UCB_BOTTOM_specularf0.png"
    },
    {
      "uri": "textures/UCB_Interiors_2_baseColor.jpeg"
    },
    {
      "uri": "textures/UCB_Interiors_2_metallicRoughness.png"
    },
    {
      "uri": "textures/Milano95_Bodymat_metallicRoughness.png"
    },
    {
      "uri": "textures/Milano95_Bodymat_specularf0.png"
    },
    {
      "uri": "textures/UCB_Lights_and_Glass_Transperent_baseColor.jpeg"
    },
    {
      "uri": "textures/UCB_Lights_and_Glass_Transperent_metallicRoughness.png"
    },
    {
      "uri": "textures/RB1c_Tire_1k_baseColor.jpeg"
    },
    {
      "uri": "textures/RB1c_Tire_1k_metallicRoughness.png"
    },
    {
      "uri": "textures/RB1c_Tire_1k_specularf0.png"
    },
    {
      "uri": "textures/Carbadges_misc_U_baseColor.png"
    },
    {
      "uri": "textures/Numberplates_Misk_U_baseColor.png"
    }
  ],
  "materials": [
    {
      "doubleSided": true,
      "extensions": {
        "KHR_materials_specular": {
          "specularColorFactor": [
            1.0,
            1.0,
            1.0
          ],
          "specularFactor": 1.0,
          "specularTexture": {
            "index": 2
          }
        }
      },
      "name": "UCB_BOTTOM",
      "occlusionTexture": {
        "index": 1
      },
      "pbrMetallicRoughness": {
        "baseColorTexture": {
          "index": 0
        },
        "metallicRoughnessTexture": {
          "index": 1
        }
      }
    },
    {
      "doubleSided": true,
      "name": "UCB_Interiors_2",
      "pbrMetallicRoughness": {
        "baseColorTexture": {
          "index": 3
        },
        "metallicRoughnessTexture": {
          "index": 4
        }
      }
    },
    {
      "doubleSided": true,
      "extensions": {
        "KHR_materials_clearcoat": {
          "clearcoatFactor": 0.6798734199440201,
          "clearcoatRoughnessFactor": 0.04
        },
        "KHR_materials_specular": {
          "specularColorFactor": [
            1.0,
            1.0,
            1.0
          ],
          "specularFactor": 1.0,
          "specularTexture": {
            "index": 6
          }
        }
      },
      "name": "Milano95_Bodymat",
      "occlusionTexture": {
        "index": 5
      },
      "pbrMetallicRoughness": {
        "baseColorFactor": [
          1.0,
          0.533276404010505,
          0.012983032342173012,
          1.0
        ],
        "metallicRoughnessTexture": {
          "extensions": {
            "KHR_texture_transform": {
              "scale": [
                20.000000000000004,
                20.000000000000004
              ]
            }
          },
          "index": 5
        },
        "roughnessFactor": 0.17690762518707168
      }
    },
    {
      "alphaMode": "BLEND",
      "doubleSided": true,
      "name": "UCB_Lights_and_Glass_Transperent",
      "pbrMetallicRoughness": {
        "baseColorFactor": [
          1.0,
          1.0,
          1.0,
          0.8
        ],
        "baseColorTexture": {
          "index": 7
        },
        "metallicFactor": 0.0,
        "metallicRoughnessTexture": {
          "index": 8
        },
        "roughnessFactor": 0.04220739904072067
      }
    },
    {
      "doubleSided": true,
      "name": "UCB_Lights_and_Glass",
      "pbrMetallicRoughness": {
        "baseColorTexture": {
          "index": 7
        },
        "metallicFactor": 0.0,
        "roughnessFactor": 0.08471846710094062
      }
    },
    {
      "doubleSided": true,
      "extensions": {
        "KHR_materials_specular": {
          "specularColorFactor": [
            1.0,
            1.0,
            1.0
          ],
          "specularFactor": 1.0,
          "specularTexture": {
            "index": 11
          }
        }
      },
      "name": "RB1c_Tire_1k",
      "occlusionTexture": {
        "index": 10
      },
      "pbrMetallicRoughness": {
        "baseColorTexture": {
          "index": 9
        },
        "metallicFactor": 0.8,
        "metallicRoughnessTexture": {
          "index": 10
        }
      }
    },
    {
      "alphaMode": "BLEND",
      "doubleSided": true,
      "name": "Carbadges_misc_U",
      "pbrMetallicRoughness": {
        "baseColorTexture": {
          "index": 12
        },
        "metallicFactor": 0.0,
        "roughnessFactor": 0.10702864035024488
      }
    },
    {
      "alphaMode": "BLEND",
      "doubleSided": true,
      "name": "Numberplates_Misk_U",
      "pbrMetallicRoughness": {
        "baseColorTexture": {
          "index": 13
        },
        "metallicFactor": 0.0,
        "roughnessFactor": 0.10702864035024488
      }
    }
  ],
  "meshes": [
    {
      "name": "Milano95_Suspension_UCB_BOTTOM_0",
      "primitives": [
        {
          "attributes": {
            "NORMAL": 1,
            "POSITION": 0,
            "TEXCOORD_0": 2,
            "TEXCOORD_1": 3,
            "TEXCOORD_2": 4
          },
          "indices": 5,
          "material": 0,
          "mode": 4
        }
      ]
    },
    {
      "name": "Milano95_interior_UCB_Interiors_2_0",
      "primitives": [
        {
          "attributes": {
            "NORMAL": 7,
            "POSITION": 6,
            "TEXCOORD_0": 8,
            "TEXCOORD_1": 9
          },
          "indices": 10,
          "material": 1,
          "mode": 4
        }
      ]
    },
    {
      "name": "Milano95_Bottom_UCB_BOTTOM_0",
      "primitives": [
        {
          "attributes": {
            "NORMAL": 12,
            "POSITION": 11,
            "TEXCOORD_0": 13,
            "TEXCOORD_1": 14,
            "TEXCOORD_2": 15
          },
          "indices": 16,
          "material": 0,
          "mode": 4
        }
      ]
    },
    {
      "name": "Milano95_Body_Milano95_Bodymat_0",
      "primitives": [
        {
          "attributes": {
            "NORMAL": 18,
            "POSITION": 17,
            "TEXCOORD_0": 19,
            "TEXCOORD_1": 20
          },
          "indices": 21,
          "material": 2,
          "mode": 4
        }
      ]
    },
    {
      "name": "Milano95_Headlights_Glass_UCB_Lights_and_Glass_Transperent_0",
      "primitives": [
        {
          "attributes": {
            "NORMAL": 23,
            "POSITION": 22,
            "TEXCOORD_0": 24
          },
          "indices": 25,
          "material": 3,
          "mode": 4
        }
      ]
    },
    {
      "name": "Milano95_Hood_Milano95_Bodymat_0",
      "primitives": [
        {
          "attributes": {
            "NORMAL": 27,
            "POSITION": 26,
            "TEXCOORD_0": 28,
            "TEXCOORD_1": 29
          },
          "indices": 30,
          "material": 2,
          "mode": 4
        }
      ]
    },
    {
      "name": "Milano95_Glass_UCB_Lights_and_Glass_Transperent_0",
      "primitives": [
        {
          "attributes": {
            "NORMAL": 32,
            "POSITION": 31,
            "TEXCOORD_0": 33
          },
          "indices": 34,
          "material": 3,
          "mode": 4
        }
      ]
    },
    {
      "name": "Milano95_Taillights_Glass_UCB_Lights_and_Glass_Transperent_0",
      "primitives": [
        {
          "attributes": {
            "NORMAL": 36,
            "POSITION": 35,
            "TEXCOORD_0": 37
          },
          "indices": 38,
          "material": 3,
          "mode": 4
        }
      ]
    },
    {
      "name": "MILANO95RM_Bumper_Front_Milano95_Bodymat_0",
      "primitives": [
        {
          "attributes": {
            "NORMAL": 40,
            "POSITION": 39,
            "TEXCOORD_0": 41,
            "TEXCOORD_1": 42
          },
          "indices": 43,
          "material": 2,
          "mode": 4
        }
      ]
    },
    {
      "name": "MILANO95RM_Bumper_Front_inner_UCB_BOTTOM_0",
      "primitives": [
        {
          "attributes": {
            "NORMAL": 45,
            "POSITION": 44,
            "TEXCOORD_0": 46,
            "TEXCOORD_1": 47,
            "TEXCOORD_2": 48
          },
          "indices": 49,
          "material": 0,
          "mode": 4
        }
      ]
    },
    {
      "name": "MILANO95RM_Bumper_rear_Milano95_Bodymat_0",
      "primitives": [
        {
          "attributes": {
            "NORMAL": 51,
            "POSITION": 50,
            "TEXCOORD_0": 52,
            "TEXCOORD_1": 53
          },
          "indices": 54,
          "material": 2,
          "mode": 4
        }
      ]
    },
    {
      "name": "MILANO95RM_Bumper_rear_inner_UCB_BOTTOM_0",
      "primitives": [
        {
          "attributes": {
            "NORMAL": 56,
            "POSITION": 55,
            "TEXCOORD_0": 57,
            "TEXCOORD_1": 58,
            "TEXCOORD_2": 59
          },
          "indices": 60,
          "material": 0,
          "mode": 4
        }
      ]
    },
    {
      "name": "MILANO95RM_Trim_UCB_BOTTOM_0",
      "primitives": [
        {
          "attributes": {
            "NORMAL": 62,
            "POSITION": 61,
            "TEXCOORD_0": 63,
            "TEXCOORD_1": 64,
            "TEXCOORD_2": 65
          },
          "indices": 66,
          "material": 0,
          "mode": 4
        }
      ]
    },
    {
      "name": "MILANO95RM_Kit_Milano95_Bodymat_0",
      "primitives": [
        {
          "attributes": {
            "NORMAL": 68,
            "POSITION": 67,
            "TEXCOORD_0": 69,
            "TEXCOORD_1": 70
          },
          "indices": 71,
          "material": 2,
          "mode": 4
        }
      ]
    },
    {
      "name": "Milano95_Windshield_UCB_Lights_and_Glass_Transperent_0",
      "primitives": [
        {
          "attributes": {
            "NORMAL": 73,
            "POSITION": 72,
            "TEXCOORD_0": 74
          },
          "indices": 75,
          "material": 3,
          "mode": 4
        }
      ]
    },
    {
      "name": "Milano95_Glass_Rear_UCB_Lights_and_Glass_Transperent_0",
      "primitives": [
        {
          "attributes": {
            "NORMAL": 77,
            "POSITION": 76,
            "TEXCOORD_0": 78
          },
          "indices": 79,
          "material": 3,
          "mode": 4
        }
      ]
    },
    {
      "name": "Milano95_Glass_Driver_UCB_Lights_and_Glass_Transperent_0",
      "primitives": [
        {
          "attributes": {
            "NORMAL": 81,
            "POSITION": 80,
            "TEXCOORD_0": 82
          },
          "indices": 83,
          "material": 3,
          "mode": 4
        }
      ]
    },
    {
      "name": "Milano95_Glass_Passanger_UCB_Lights_and_Glass_Transperent_0",
      "primitives": [
        {
          "attributes": {
            "NORMAL": 85,
            "POSITION": 84,
            "TEXCOORD_0": 86
          },
          "indices": 87,
          "material": 3,
          "mode": 4
        }
      ]
    },
    {
      "name": "Milano95_Steering_Wheel_UCB_Interiors_2_0",
      "primitives": [
        {
          "attributes": {
            "NORMAL": 89,
            "POSITION": 88,
            "TEXCOORD_0": 90,
            "TEXCOORD_1": 91
          },
          "indices": 92,
          "material": 1,
          "mode": 4
        }
      ]
    },
    {
      "name": "Milano95_Headlights_UCB_Lights_and_Glass_0",
      "primitives": [
        {
          "attributes": {
            "NORMAL": 94,
            "POSITION": 93,
            "TEXCOORD_0": 95
          },
          "indices": 96,
          "material": 4,
          "mode": 4
        }
      ]
    },
    {
      "name": "Milano95_Blinkers_UCB_Lights_and_Glass_0",
      "primitives": [
        {
          "attributes": {
            "NORMAL": 98,
            "POSITION": 97,
            "TEXCOORD_0": 99
          },
          "indices": 100,
          "material": 4,
          "mode": 4
        }
      ]
    },
    {
      "name": "Milano95_Brakelights_UCB_Lights_and_Glass_0",
      "primitives": [
        {
          "attributes": {
            "NORMAL": 102,
            "POSITION": 101,
            "TEXCOORD_0": 103
          },
          "indices": 104,
          "material": 4,
          "mode": 4
        }
      ]
    },
    {
      "name": "Milano95_Reverse_UCB_Lights_and_Glass_0",
      "primitives": [
        {
          "attributes": {
            "NORMAL": 106,
            "POSITION": 105,
            "TEXCOORD_0": 107
          },
          "indices": 108,
          "material": 4,
          "mode": 4
        }
      ]
    },
    {
      "name": "Milano95_WheelSport_FL_RB1c_Tire_1k_0",
      "primitives": [
        {
          "attributes": {
            "NORMAL": 110,
            "POSITION": 109,
            "TEXCOORD_0": 111,
            "TEXCOORD_1": 112
          },
          "indices": 113,
          "material": 5,
          "mode": 4
        }
      ]
    },
    {
      "name": "Milano95_WheelSport_RR_RB1c_Tire_1k_0",
      "primitives": [
        {
          "attributes": {
            "NORMAL": 115,
            "POSITION": 114,
            "TEXCOORD_0": 116,
            "TEXCOORD_1": 117
          },
          "indices": 118,
          "material": 5,
          "mode": 4
        }
      ]
    },
    {
      "name": "Milano95_WheelSport_FR_RB1c_Tire_1k_0",
      "primitives": [
        {
          "attributes": {
            "NORMAL": 120,
            "POSITION": 119,
            "TEXCOORD_0": 121,
            "TEXCOORD_1": 122
          },
          "indices": 123,
          "material": 5,
          "mode": 4
        }
      ]
    },
    {
      "name": "Milano95_WheelSport_RL_RB1c_Tire_1k_0",
      "primitives": [
        {
          "attributes": {
            "NORMAL": 125,
            "POSITION": 124,
            "TEXCOORD_0": 126,
            "TEXCOORD_1": 127
          },
          "indices": 128,
          "material": 5,
          "mode": 4
        }
      ]
    },
    {
      "name": "Milano95_Body_Badges_Carbadges_misc_U_0",
      "primitives": [
        {
          "attributes": {
            "NORMAL": 130,
            "POSITION": 129,
            "TEXCOORD_0": 131,
            "TEXCOORD_1": 132
          },
          "indices": 133,
          "material": 6,
          "mode": 4
        }
      ]
    },
    {
      "name": "Milano95RM_Numberplates_Rear_Numberplates_Misk_U_0",
      "primitives": [
        {
          "attributes": {
            "NORMAL": 135,
            "POSITION": 134,
            "TEXCOORD_0": 136,
            "TEXCOORD_1": 137,
            "TEXCOORD_2": 138
          },
          "indices": 139,
          "material": 7,
          "mode": 4
        }
      ]
    },
    {
      "name": "Milano95_CaliperSport_FL_RB1c_Tire_1k_0",
      "primitives": [
        {
          "attributes": {
            "NORMAL": 141,
            "POSITION": 140,
            "TEXCOORD_0": 142,
            "TEXCOORD_1": 143
          },
          "indices": 144,
          "material": 5,
          "mode": 4
        }
      ]
    },
    {
      "name": "Milano95_CaliperSport_FR_RB1c_Tire_1k_0",
      "primitives": [
        {
          "attributes": {
            "NORMAL": 146,
            "POSITION": 145,
            "TEXCOORD_0": 147,
            "TEXCOORD_1": 148
          },
          "indices": 149,
          "material": 5,
          "mode": 4
        }
      ]
    },
    {
      "name": "Milano95_CaliperSport_RL_RB1c_Tire_1k_0",
      "primitives": [
        {
          "attributes": {
            "NORMAL": 151,
            "POSITION": 150,
            "TEXCOORD_0": 152,
            "TEXCOORD_1": 153
          },
          "indices": 154,
          "material": 5,
          "mode": 4
        }
      ]
    },
    {
      "name": "Milano95_CaliperSport_RR_RB1c_Tire_1k_0",
      "primitives": [
        {
          "attributes": {
            "NORMAL": 156,
            "POSITION": 155,
            "TEXCOORD_0": 157,
            "TEXCOORD_1": 158
          },
          "indices": 159,
          "material": 5,
          "mode": 4
        }
      ]
    }
  ],
  "nodes": [
    {
      "children": [
        1
      ],
      "matrix": [
        1.0,
        0.0,
        0.0,
        0.0,
        0.0,
        2.220446049250313e-16,
        -1.0,
        0.0,
        0.0,
        1.0,
        2.220446049250313e-16,
        0.0,
        0.0,
        0.0,
        0.0,
        1.0
      ],
      "name": "Sketchfab_model"
    },
    {
      "children": [
        2
      ],
      "matrix": [
        1.0,
        0.0,
        0.0,
        0.0,
        0.0,
        0.0,
        1.0,
        0.0,
        0.0,
        -1.0,
        0.0,
        0.0,
        0.0,
        0.0,
        0.0,
        1.0
      ],
      "name": "a6032759d4e949388410fe4e3e6ae6b1.fbx"
    },
    {
      "children": [
        3,
        6,
        9,
        12,
        15,
        18,
        21,
        24,
        27,
        30,
        33,
        36,
        39,
        42,
        45,
        48,
        51,
        54,
        57,
        60,
        63,
        66,
        69,
        72,
        75,
        78,
        81,
        84,
        87,
        90,
        93,
        96,
        99
      ],
      "name": "RootNode"
    },
    {
      "children": [
        4
      ],
      "matrix": [
        -0.9999999999999887,
        -1.2246469849340659e-16,
        1.5099580265055077e-07,
        0.0,
        1.5099580265055077e-07,
        -4.440892098500626e-16,
        0.9999999999999887,
        0.0,
        -1.2246464555384738e-16,
        1.0,
        3.3306690738754696e-16,
        0.0,
        -0.06680285930633545,
        0.4278634190559387,
        -5.376455192163121e-08,
        1.0
      ],
      "name": "Milano95_Suspension"
    },
    {
      "children": [
        5
      ],
      "matrix": [
        1.0,
        0.0,
        -0.0,
        0.0,
        0.0,
        1.0,
        0.0,
        0.0,
        0.0,
        0.0,
        1.0,
        0.0,
        -1.197729468345642,
        -0.5650718212127686,
        -0.02130086161196232,
        1.0
      ],
      "name": "Object_4"
    },
    {
      "mesh": 0,
      "name": "Milano95_Suspension_UCB_BOTTOM_0"
    },
    {
      "children": [
        7
      ],
      "matrix": [
        -0.9999999999999887,
        -1.2246469849340659e-16,
        1.5099580265055077e-07,
        0.0,
        1.5099580265055077e-07,
        -4.440892098500626e-16,
        0.9999999999999887,
        0.0,
        -1.2246464555384738e-16,
        1.0,
        3.3306690738754696e-16,
        0.0,
        -0.4369356036186218,
        0.8146191239356995,
        -2.1406521000244538e-08,
        1.0
      ],
      "name": "Milano95_interior"
    },
    {
      "children": [
        8
      ],
      "matrix": [
        1.0,
        0.0,
        -0.0,
        0.0,
        0.0,
        1.0,
        0.0,
        0.0,
        0.0,
        0.0,
        1.0,
        0.0,
        -0.4604971706867218,
        -0.37708359956741333,
        -0.022769734263420105,
        1.0
      ],
      "name": "Object_7"
    },
    {
      "mesh": 1,
      "name": "Milano95_interior_UCB_Interiors_2_0"
    },
    {
      "children": [
        10
      ],
      "matrix": [
        -0.9999999999999887,
        -1.2246469849340659e-16,
        1.5099580265055077e-07,
        0.0,
        1.5099580265055077e-07,
        -4.440892098500626e-16,
        0.9999999999999887,
        0.0,
        -1.2246464555384738e-16,
        1.0,
        3.3306690738754696e-16,
        0.0,
        -0.008611869066953659,
        0.7350501418113708,
        7.528734857764618e-10,
        1.0
      ],
      "name": "Milano95_Bottom"
    },
    {
      "children": [
        11
      ],
      "matrix": [
        1.0,
        0.0,
        -0.0,
        0.0,
        0.0,
        1.0,
        0.0,
        0.0,
        0.0,
        0.0,
        1.0,
        0.0,
        -0.03217345476150513,
        -0.3770836591720581,
        0.056799180805683136,
        1.0
      ],
      "name": "Object_10"
    },
    {
      "mesh": 2,
      "name": "Milano95_Bottom_UCB_BOTTOM_0"
    },
    {
      "children": [
        13
      ],
      "matrix": [
        -0.9999999999999887,
        -1.2246469849340659e-16,
        1.5099580265055077e-07,
        0.0,
        1.5099580265055077e-07,
        -4.440892098500626e-16,
        0.9999999999999887,
        0.0,
        -1.2246464555384738e-16,
        1.0,
        3.3306690738754696e-16,
        0.0,
        -0.573743462562561,
        0.835955798625946,
        -9.88533770396316e-08,
        1.0
      ],
      "name": "Milano95_Body"
    },
    {
      "children": [
        14
      ],
      "matrix": [
        1.0,
        0.0,
        -0.0,
        0.0,
        0.0,
        1.0,
        0.0,
        0.0,
        0.0,
        0.0,
        1.0,
        0.0,
        -0.5973050594329834,
        -0.37708351016044617,
        -0.044106438755989075,
        1.0
      ],
      "name": "Object_13"
    },
    {
      "mesh": 3,
      "name": "Milano95_Body_Milano95_Bodymat_0"
    },
    {
      "children": [
        16
      ],
      "matrix": [
        -0.9999999999999887,
        -1.2246469849340659e-16,
        1.5099580265055077e-07,
        0.0,
        1.5099580265055077e-07,
        -4.440892098500626e-16,
        0.9999999999999887,
        0.0,
        -1.2246464555384738e-16,
        1.0,
        3.3306690738754696e-16,
        0.0,
        1.6535978317260742,
        0.6288726925849915,
        -2.3396907522510446e-07,
        1.0
      ],
      "name": "Milano95_Headlights_Glass"
    },
    {
      "children": [
        17
      ],
      "matrix": [
        1.0,
        0.0,
        -0.0,
        0.0,
        0.0,
        1.0,
        0.0,
        0.0,
        0.0,
        0.0,
        1.0,
        0.0,
        2.032397747039795,
        -0.37708356976509094,
        0.1629766821861267,
        1.0
      ],
      "name": "Object_16"
    },
    {
      "mesh": 4,
      "name": "Milano95_Headlights_Glass_UCB_Lights_and_Glass_Transperent_0"
    },
    {
      "children": [
        19
      ],
      "matrix": [
        -0.9999999999999887,
        -1.2246469849340659e-16,
        1.5099580265055077e-07,
        0.0,
        1.5099580265055077e-07,
        -4.440892098500626e-16,
        0.9999999999999887,
        0.0,
        -1.2246464555384738e-16,
        1.0,
        3.3306690738754696e-16,
        0.0,
        1.368153691291809,
        0.772550642490387,
        -1.7921243511409557e-07,
        1.0
      ],
      "name": "Milano95_Hood"
    },
    {
      "children": [
        20
      ],
      "matrix": [
        1.0,
        0.0,
        -0.0,
        0.0,
        0.0,
        1.0,
        0.0,
        0.0,
        0.0,
        0.0,
        1.0,
        0.0,
        1.3445922136306763,
        -0.37708359956741333,
        0.019298695027828217,
        1.0
      ],
      "name": "Object_19"
    },
    {
      "mesh": 5,
      "name": "Milano95_Hood_Milano95_Bodymat_0"
    },
    {
      "children": [
        22
      ],
      "matrix": [
        -0.9999999999999887,
        -1.2246469849340659e-16,
        1.5099580265055077e-07,
        0.0,
        1.5099580265055077e-07,
        -4.440892098500626e-16,
        0.9999999999999887,
        0.0,
        -1.2246464555384738e-16,
        1.0,
        3.3306690738754696e-16,
        0.0,
        -0.9681742787361145,
        1.122365951538086,
        8.464048306677796e-08,
        1.0
      ],
      "name": "Milano95_Glass"
    },
    {
      "children": [
        23
      ],
      "matrix": [
        1.0,
        0.0,
        -0.0,
        0.0,
        0.0,
        1.0,
        0.0,
        0.0,
        0.0,
        0.0,
        1.0,
        0.0,
        -0.9917358160018921,
        -0.3770836889743805,
        -0.3305165469646454,
        1.0
      ],
      "name": "Object_22"
    },
    {
      "mesh": 6,
      "name": "Milano95_Glass_UCB_Lights_and_Glass_Transperent_0"
    },
    {
      "children": [
        25
      ],
      "matrix": [
        -0.9999999999999887,
        -1.2246469849340659e-16,
        1.5099580265055077e-07,
        0.0,
        1.5099580265055077e-07,
        -4.440892098500626e-16,
        0.9999999999999887,
        0.0,
        -1.2246464555384738e-16,
        1.0,
        3.3306690738754696e-16,
        0.0,
        -1.5186896324157715,
        1.093494176864624,
        4.336109782343556e-08,
        1.0
      ],
      "name": "Milano95_Taillights_Glass"
    },
    {
      "children": [
        26
      ],
      "matrix": [
        1.0,
        0.0,
        -0.0,
        0.0,
        0.0,
        1.0,
        0.0,
        0.0,
        0.0,
        0.0,
        1.0,
        0.0,
        -1.9866435527801514,
        -0.37708353996276855,
        -0.30164486169815063,
        1.0
      ],
      "name": "Object_25"
    },
    {
      "mesh": 7,
      "name": "Milano95_Taillights_Glass_UCB_Lights_and_Glass_Transperent_0"
    },
    {
      "children": [
        28
      ],
      "matrix": [
        -0.9999999999999887,
        -1.2246469849340659e-16,
        1.5099580265055077e-07,
        0.0,
        1.5099580265055077e-07,
        -4.440892098500626e-16,
        0.9999999999999887,
        0.0,
        -1.2246464555384738e-16,
        1.0,
        3.3306690738754696e-16,
        0.0,
        1.5949004888534546,
        0.3933139443397522,
        -2.884422372062545e-07,
        1.0
      ],
      "name": "MILANO95RM_Bumper_Front"
    },
    {
      "children": [
        29
      ],
      "matrix": [
        1.0,
        0.0,
        -0.0,
        0.0,
        0.0,
        1.0,
        0.0,
        0.0,
        0.0,
        0.0,
        1.0,
        0.0,
        0.4049812853336334,
        -0.0848827064037323,
        0.5496596097946167,
        1.0
      ],
      "name": "Object_28"
    },
    {
      "mesh": 8,
      "name": "MILANO95RM_Bumper_Front_Milano95_Bodymat_0"
    },
    {
      "children": [
        31
      ],
      "matrix": [
        -0.9999999999999887,
        -1.2246469849340659e-16,
        1.5099580265055077e-07,
        0.0,
        1.5099580265055077e-07,
        -4.440892098500626e-16,
        0.9999999999999887,
        0.0,
        -1.2246464555384738e-16,
        1.0,
        3.3306690738754696e-16,
        0.0,
        1.5912445783615112,
        0.35301142930984497,
        -2.2851799030831899e-07,
        1.0
      ],
      "name": "MILANO95RM_Bumper_Front_inner"
    },
    {
      "children": [
        32
      ],
      "matrix": [
        1.0,
        0.0,
        -0.0,
        0.0,
        0.0,
        1.0,
        0.0,
        0.0,
        0.0,
        0.0,
        1.0,
        0.0,
        0.40132537484169006,
        -0.08488276600837708,
        0.5899621248245239,
        1.0
      ],
      "name": "Object_31"
    },
    {
      "mesh": 9,
      "name": "MILANO95RM_Bumper_Front_inner_UCB_BOTTOM_0"
    },
    {
      "children": [
        34
      ],
      "matrix": [
        -0.9999999999999887,
        -1.2246469849340659e-16,
        1.5099580265055077e-07,
        0.0,
        1.5099580265055077e-07,
        -4.440892098500626e-16,
        0.9999999999999887,
        0.0,
        -1.2246464555384738e-16,
        1.0,
        3.3306690738754696e-16,
        0.0,
        -1.7498928308486938,
        0.41761282086372375,
        3.968878559135192e-09,
        1.0
      ],
      "name": "MILANO95RM_Bumper_rear"
    },
    {
      "children": [
        35
      ],
      "matrix": [
        1.0,
        0.0,
        -0.0,
        0.0,
        0.0,
        1.0,
        0.0,
        0.0,
        0.0,
        0.0,
        1.0,
        0.0,
        -1.773453712463379,
        -0.3770834803581238,
        0.37423667311668396,
        1.0
      ],
      "name": "Object_34"
    },
    {
      "mesh": 10,
      "name": "MILANO95RM_Bumper_rear_Milano95_Bodymat_0"
    },
    {
      "children": [
        37
      ],
      "matrix": [
        -0.9999999999999887,
        -1.2246469849340659e-16,
        1.5099580265055077e-07,
        0.0,
        1.5099580265055077e-07,
        -4.440892098500626e-16,
        0.9999999999999887,
        0.0,
        -1.2246464555384738e-16,
        1.0,
        3.3306690738754696e-16,
        0.0,
        -1.7502045631408691,
        0.4170081913471222,
        -1.748177851368382e-07,
        1.0
      ],
      "name": "MILANO95RM_Bumper_rear_inner"
    },
    {
      "children": [
        38
      ],
      "matrix": [
        1.0,
        0.0,
        -0.0,
        0.0,
        0.0,
        1.0,
        0.0,
        0.0,
        0.0,
        0.0,
        1.0,
        0.0,
        -1.7265501022338867,
        -0.37708353996276855,
        0.3748414218425751,
        1.0
      ],
      "name": "Object_37"
    },
    {
      "mesh": 11,
      "name": "MILANO95RM_Bumper_rear_inner_UCB_BOTTOM_0"
    },
    {
      "children": [
        40
      ],
      "matrix": [
        -0.9999999999999887,
        -1.2246469849340659e-16,
        1.5099580265055077e-07,
        0.0,
        1.5099580265055077e-07,
        -4.440892098500626e-16,
        0.9999999999999887,
        0.0,
        -1.2246464555384738e-16,
        1.0,
        3.3306690738754696e-16,
        0.0,
        -0.48321738839149475,
        0.753897488117218,
        4.2967440094798803e-07,
        1.0
      ],
      "name": "MILANO95RM_Trim"
    },
    {
      "children": [
        41
      ],
      "matrix": [
        1.0,
        0.0,
        -0.0,
        0.0,
        0.0,
        1.0,
        0.0,
        0.0,
        0.0,
        0.0,
        1.0,
        0.0,
        -0.5067781209945679,
        -0.37708404660224915,
        0.03795171529054642,
        1.0
      ],
      "name": "Object_40"
    },
    {
      "mesh": 12,
      "name": "MILANO95RM_Trim_UCB_BOTTOM_0"
    },
    {
      "children": [
        43
      ],
      "matrix": [
        -0.9999999999999887,
        -1.2246469849340659e-16,
        1.5099580265055077e-07,
        0.0,
        1.5099580265055077e-07,
        -4.440892098500626e-16,
        0.9999999999999887,
        0.0,
        -1.2246464555384738e-16,
        1.0,
        3.3306690738754696e-16,
        0.0,
        -0.06018717586994171,
        0.7493992447853088,
        -5.2101440815022215e-06,
        1.0
      ],
      "name": "MILANO95RM_Kit"
    },
    {
      "children": [
        44
      ],
      "matrix": [
        1.0,
        0.0,
        -0.0,
        0.0,
        0.0,
        1.0,
        0.0,
        0.0,
        0.0,
        0.0,
        1.0,
        0.0,
        -0.08374875783920288,
        -0.37707844376564026,
        0.04245005548000336,
        1.0
      ],
      "name": "Object_43"
    },
    {
      "mesh": 13,
      "name": "MILANO95RM_Kit_Milano95_Bodymat_0"
    },
    {
      "children": [
        46
      ],
      "matrix": [
        -0.9999999999999887,
        -1.2246469849340659e-16,
        1.5099580265055077e-07,
        0.0,
        1.5099580265055077e-07,
        -4.440892098500626e-16,
        0.9999999999999887,
        0.0,
        -1.2246464555384738e-16,
        1.0,
        3.3306690738754696e-16,
        0.0,
        0.5521339774131775,
        1.1447513103485107,
        -1.6747839026720612e-07,
        1.0
      ],
      "name": "Milano95_Windshield"
    },
    {
      "children": [
        47
      ],
      "matrix": [
        1.0,
        0.0,
        -0.0,
        0.0,
        0.0,
        1.0,
        0.0,
        0.0,
        0.0,
        0.0,
        1.0,
        0.0,
        0.5285724401473999,
        -0.37708356976509094,
        -0.3529019057750702,
        1.0
      ],
      "name": "Object_46"
    },
    {
      "mesh": 14,
      "name": "Milano95_Windshield_UCB_Lights_and_Glass_Transperent_0"
    },
    {
      "children": [
        49
      ],
      "matrix": [
        -0.9999999999999887,
        -1.2246469849340659e-16,
        1.5099580265055077e-07,
        0.0,
        1.5099580265055077e-07,
        -4.440892098500626e-16,
        0.9999999999999887,
        0.0,
        -1.2246464555384738e-16,
        1.0,
        3.3306690738754696e-16,
        0.0,
        -1.6178704500198364,
        1.115748405456543,
        1.116364103381784e-07,
        1.0
      ],
      "name": "Milano95_Glass_Rear"
    },
    {
      "children": [
        50
      ],
      "matrix": [
        1.0,
        0.0,
        -0.0,
        0.0,
        0.0,
        1.0,
        0.0,
        0.0,
        0.0,
        0.0,
        1.0,
        0.0,
        -1.6414320468902588,
        -0.3770836591720581,
        -0.3238990008831024,
        1.0
      ],
      "name": "Object_49"
    },
    {
      "mesh": 15,
      "name": "Milano95_Glass_Rear_UCB_Lights_and_Glass_Transperent_0"
    },
    {
      "children": [
        52
      ],
      "matrix": [
        -0.9999999999999887,
        -1.2246469849340659e-16,
        1.5099580265055077e-07,
        0.0,
        1.5099580265055077e-07,
        -4.440892098500626e-16,
        0.9999999999999887,
        0.0,
        -1.2246464555384738e-16,
        1.0,
        3.3306690738754696e-16,
        0.0,
        -0.01317378506064415,
        1.0766186714172363,
        -0.6330426335334778,
        1.0
      ],
      "name": "Milano95_Glass_Driver"
    },
    {
      "children": [
        53
      ],
      "matrix": [
        1.0,
        0.0,
        -0.0,
        0.0,
        0.0,
        1.0,
        0.0,
        0.0,
        0.0,
        0.0,
        1.0,
        0.0,
        -0.03673526644706726,
        0.2559589445590973,
        -0.2847693860530853,
        1.0
      ],
      "name": "Object_52"
    },
    {
      "mesh": 16,
      "name": "Milano95_Glass_Driver_UCB_Lights_and_Glass_Transperent_0"
    },
    {
      "children": [
        55
      ],
      "matrix": [
        -0.9999999999999887,
        -1.2246469849340659e-16,
        1.5099580265055077e-07,
        0.0,
        1.5099580265055077e-07,
        -4.440892098500626e-16,
        0.9999999999999887,
        0.0,
        -1.2246464555384738e-16,
        1.0,
        3.3306690738754696e-16,
        0.0,
        -0.013173673301935196,
        1.0766186714172363,
        0.6330426335334778,
        1.0
      ],
      "name": "Milano95_Glass_Passanger"
    },
    {
      "children": [
        56
      ],
      "matrix": [
        1.0,
        0.0,
        -0.0,
        0.0,
        0.0,
        1.0,
        0.0,
        0.0,
        0.0,
        0.0,
        1.0,
        0.0,
        -0.03673526644706726,
        -1.0101263523101807,
        -0.2847693860530853,
        1.0
      ],
      "name": "Object_55"
    },
    {
      "mesh": 17,
      "name": "Milano95_Glass_Passanger_UCB_Lights_and_Glass_Transperent_0"
    },
    {
      "children": [
        58
      ],
      "matrix": [
        -0.9999999999999887,
        -1.2246469849340659e-16,
        1.5099580265055077e-07,
        0.0,
        1.5099580265055077e-07,
        -4.440892098500626e-16,
        0.9999999999999887,
        0.0,
        -1.2246464555384738e-16,
        1.0,
        3.3306690738754696e-16,
        0.0,
        0.24724969267845154,
        0.830158531665802,
        -0.3300754129886627,
        1.0
      ],
      "name": "Milano95_Steering_Wheel"
    },
    {
      "children": [
        59
      ],
      "matrix": [
        1.0,
        0.0,
        -0.0,
        0.0,
        0.0,
        1.0,
        0.0,
        0.0,
        0.0,
        0.0,
        1.0,
        0.0,
        0.22368815541267395,
        -0.04700830578804016,
        -0.038309261202812195,
        1.0
      ],
      "name": "Object_58"
    },
    {
      "mesh": 18,
      "name": "Milano95_Steering_Wheel_UCB_Interiors_2_0"
    },
    {
      "children": [
        61
      ],
      "matrix": [
        -0.9999999999999887,
        -1.2246469849340659e-16,
        1.5099580265055077e-07,
        0.0,
        1.5099580265055077e-07,
        -4.440892098500626e-16,
        0.9999999999999887,
        0.0,
        -1.2246464555384738e-16,
        1.0,
        3.3306690738754696e-16,
        0.0,
        1.7284064292907715,
        0.6288726925849915,
        -2.1070673028589226e-07,
        1.0
      ],
      "name": "Milano95_Headlights"
    },
    {
      "children": [
        62
      ],
      "matrix": [
        1.0,
        0.0,
        -0.0,
        0.0,
        0.0,
        1.0,
        0.0,
        0.0,
        0.0,
        0.0,
        1.0,
        0.0,
        2.107206344604492,
        -0.37708359956741333,
        0.1629766821861267,
        1.0
      ],
      "name": "Object_61"
    },
    {
      "mesh": 19,
      "name": "Milano95_Headlights_UCB_Lights_and_Glass_0"
    },
    {
      "children": [
        64
      ],
      "matrix": [
        -0.9999999999999887,
        -1.2246469849340659e-16,
        1.5099580265055077e-07,
        0.0,
        1.5099580265055077e-07,
        -4.440892098500626e-16,
        0.9999999999999887,
        0.0,
        -1.2246464555384738e-16,
        1.0,
        3.3306690738754696e-16,
        0.0,
        -0.00792837142944336,
        0.7982495427131653,
        -8.871384693520667e-08,
        1.0
      ],
      "name": "Milano95_Blinkers"
    },
    {
      "children": [
        65
      ],
      "matrix": [
        1.0,
        0.0,
        -0.0,
        0.0,
        0.0,
        1.0,
        0.0,
        0.0,
        0.0,
        0.0,
        1.0,
        0.0,
        -0.47588229179382324,
        -0.37708353996276855,
        -0.006400242447853088,
        1.0
      ],
      "name": "Object_64"
    },
    {
      "mesh": 20,
      "name": "Milano95_Blinkers_UCB_Lights_and_Glass_0"
    },
    {
      "children": [
        67
      ],
      "matrix": [
        -0.9999999999999887,
        -1.2246469849340659e-16,
        1.5099580265055077e-07,
        0.0,
        1.5099580265055077e-07,
        -4.440892098500626e-16,
        0.9999999999999887,
        0.0,
        -1.2246464555384738e-16,
        1.0,
        3.3306690738754696e-16,
        0.0,
        -1.4826595783233643,
        1.1621036529541016,
        4.021124766495632e-08,
        1.0
      ],
      "name": "Milano95_Brakelights"
    },
    {
      "children": [
        68
      ],
      "matrix": [
        1.0,
        0.0,
        -0.0,
        0.0,
        0.0,
        1.0,
        0.0,
        0.0,
        0.0,
        0.0,
        1.0,
        0.0,
        -1.9506134986877441,
        -0.37708353996276855,
        -0.3702544569969177,
        1.0
      ],
      "name": "Object_67"
    },
    {
      "mesh": 21,
      "name": "Milano95_Brakelights_UCB_Lights_and_Glass_0"
    },
    {
      "children": [
        70
      ],
      "matrix": [
        -0.9999999999999887,
        -1.2246469849340659e-16,
        1.5099580265055077e-07,
        0.0,
        1.5099580265055077e-07,
        -4.440892098500626e-16,
        0.9999999999999887,
        0.0,
        -1.2246464555384738e-16,
        1.0,
        3.3306690738754696e-16,
        0.0,
        -1.5524015426635742,
        1.034489631652832,
        4.63082869828213e-08,
        1.0
      ],
      "name": "Milano95_Reverse"
    },
    {
      "children": [
        71
      ],
      "matrix": [
        1.0,
        0.0,
        -0.0,
        0.0,
        0.0,
        1.0,
        0.0,
        0.0,
        0.0,
        0.0,
        1.0,
        0.0,
        -2.020355701446533,
        -0.37708353996276855,
        -0.24264028668403625,
        1.0
      ],
      "name": "Object_70"
    },
    {
      "mesh": 22,
      "name": "Milano95_Reverse_UCB_Lights_and_Glass_0"
    },
    {
      "children": [
        73
      ],
      "matrix": [
        -0.7578160166740333,
        -9.280569591624731e-17,
        1.1442703567991258e-07,
        0.0,
        -1.8735337297865706e-14,
        0.7578160166740316,
        -1.2346390829199114e-07,
        0.0,
        -9.617330320061099e-08,
        -1.0376858769385066e-07,
        -0.6369270086288297,
        0.0,
        1.1253212690353394,
        0.29089683294296265,
        -0.7244009375572205,
        1.0
      ],
      "name": "Milano95_WheelSport_FL"
    },
    {
      "children": [
        74
      ],
      "matrix": [
        1.0,
        0.0,
        -0.0,
        0.0,
        0.0,
        1.0,
        0.0,
        0.0,
        0.0,
        0.0,
        1.0,
        0.0,
        -9.1548187697299e-08,
        -6.526493234559894e-05,
        0.19198529422283173,
        1.0
      ],
      "name": "Object_73"
    },
    {
      "mesh": 23,
      "name": "Milano95_WheelSport_FL_RB1c_Tire_1k_0"
    },
    {
      "children": [
        76
      ],
      "matrix": [
        0.757816016674036,
        -6.625038224777656e-08,
        6.625038224777656e-08,
        0.0,
        -6.625035565889244e-08,
        -0.757816016673978,
        -3.041413154386015e-07,
        0.0,
        5.568195154539139e-08,
        2.5562380616339504e-07,
        -0.6369270086287916,
        0.0,
        -1.2978812456130981,
        0.290896475315094,
        -0.7244006991386414,
        1.0
      ],
      "name": "Milano95_WheelSport_RR"
    },
    {
      "children": [
        77
      ],
      "matrix": [
        1.0,
        0.0,
        -0.0,
        0.0,
        0.0,
        1.0,
        0.0,
        0.0,
        0.0,
        0.0,
        1.0,
        0.0,
        -9.154821611900843e-08,
        -6.526493234559894e-05,
        0.19198529422283173,
        1.0
      ],
      "name": "Object_76"
    },
    {
      "mesh": 24,
      "name": "Milano95_WheelSport_RR_RB1c_Tire_1k_0"
    },
    {
      "children": [
        79
      ],
      "matrix": [
        -0.7578160166740333,
        -9.280569591624611e-17,
        1.1442703567991262e-07,
        0.0,
        3.601333657238069e-14,
        -0.7578160166740046,
        2.378909272959302e-07,
        0.0,
        9.617330320060755e-08,
        1.9994187687869017e-07,
        0.6369270086288066,
        0.0,
        1.125321388244629,
        0.29089659452438354,
        0.7244154810905457,
        1.0
      ],
      "name": "Milano95_WheelSport_FR"
    },
    {
      "children": [
        80
      ],
      "matrix": [
        1.0,
        0.0,
        -0.0,
        0.0,
        0.0,
        1.0,
        0.0,
        0.0,
        0.0,
        0.0,
        1.0,
        0.0,
        -9.1548187697299e-08,
        -6.522555486299098e-05,
        0.19198529422283173,
        1.0
      ],
      "name": "Object_79"
    },
    {
      "mesh": 25,
      "name": "Milano95_WheelSport_FR_RB1c_Tire_1k_0"
    },
    {
      "children": [
        82
      ],
      "matrix": [
        0.757816016674036,
        -6.625038224777656e-08,
        6.625038224777656e-08,
        0.0,
        6.62503814577484e-08,
        0.7578160166740388,
        9.036871336576291e-09,
        0.0,
        -5.5681929862052683e-08,
        -7.595278553337758e-09,
        0.6369270086288428,
        0.0,
        -1.2978811264038086,
        0.29089707136154175,
        0.7244157195091248,
        1.0
      ],
      "name": "Milano95_WheelSport_RL"
    },
    {
      "children": [
        83
      ],
      "matrix": [
        1.0,
        0.0,
        -0.0,
        0.0,
        0.0,
        1.0,
        0.0,
        0.0,
        0.0,
        0.0,
        1.0,
        0.0,
        -9.154815927558957e-08,
        -6.522552575916052e-05,
        0.19198529422283173,
        1.0
      ],
      "name": "Object_82"
    },
    {
      "mesh": 26,
      "name": "Milano95_WheelSport_RL_RB1c_Tire_1k_0"
    },
    {
      "children": [
        85
      ],
      "matrix": [
        6.078582448498793e-08,
        -2.6469779601696886e-23,
        0.9999999999999982,
        0.0,
        -1.6292068488171323e-07,
        0.9999999999999867,
        9.903268172249337e-15,
        0.0,
        -0.9999999999999849,
        -1.6292068488171352e-07,
        6.078582448498793e-08,
        0.0,
        0.007657885551452637,
        0.6462460160255432,
        0.004428386688232422,
        1.0
      ],
      "name": "Milano95_Body_Badges"
    },
    {
      "children": [
        86
      ],
      "matrix": [
        1.0,
        0.0,
        -0.0,
        0.0,
        0.0,
        1.0,
        0.0,
        0.0,
        0.0,
        0.0,
        1.0,
        0.0,
        -0.5038201808929443,
        0.998927116394043,
        2.1285219192504883,
        1.0
      ],
      "name": "Object_85"
    },
    {
      "mesh": 27,
      "name": "Milano95_Body_Badges_Carbadges_misc_U_0"
    },
    {
      "children": [
        88
      ],
      "matrix": [
        9.019871693993764e-08,
        -1.3877787807814457e-17,
        0.999999999999996,
        0.0,
        0.17364810008081288,
        0.9848077666927306,
        -1.5662835847751744e-08,
        0.0,
        -0.9848077666927266,
        0.1736481000808136,
        8.882839708235224e-08,
        0.0,
        -1.835587501525879,
        0.7513514161109924,
        1.008675099001266e-07,
        1.0
      ],
      "name": "Milano95RM_Numberplates_Rear"
    },
    {
      "children": [
        89
      ],
      "matrix": [
        1.0,
        0.0,
        -0.0,
        0.0,
        0.0,
        1.0,
        0.0,
        0.0,
        0.0,
        0.0,
        1.0,
        0.0,
        0.4921662211418152,
        -0.4848644733428955,
        -0.002145316218957305,
        1.0
      ],
      "name": "Object_88"
    },
    {
      "mesh": 28,
      "name": "Milano95RM_Numberplates_Rear_Numberplates_Misk_U_0"
    },
    {
      "children": [
        91
      ],
      "matrix": [
        -0.7578160166740333,
        -9.280569591624731e-17,
        1.1442703567991258e-07,
        0.0,
        -1.8735337297865706e-14,
        0.7578160166740316,
        -1.2346390829199114e-07,
        0.0,
        -9.617330320061099e-08,
        -1.0376858769385066e-07,
        -0.6369270086288297,
        0.0,
        1.1253212690353394,
        0.29089683294296265,
        -0.7244009375572205,
        1.0
      ],
      "name": "Milano95_CaliperSport_FL"
    },
    {
      "children": [
        92
      ],
      "matrix": [
        1.0,
        0.0,
        -0.0,
        0.0,
        0.0,
        1.0,
        0.0,
        0.0,
        0.0,
        0.0,
        1.0,
        0.0,
        -9.1548187697299e-08,
        -6.526493234559894e-05,
        0.19198529422283173,
        1.0
      ],
      "name": "Object_91"
    },
    {
      "mesh": 29,
      "name": "Milano95_CaliperSport_FL_RB1c_Tire_1k_0"
    },
    {
      "children": [
        94
      ],
      "matrix": [
        -0.7578160166740333,
        -9.280569591624611e-17,
        1.1442703567991262e-07,
        0.0,
        3.601333657238069e-14,
        -0.7578160166740046,
        2.378909272959302e-07,
        0.0,
        9.617330320060755e-08,
        1.9994187687869017e-07,
        0.6369270086288066,
        0.0,
        1.125321388244629,
        0.29089659452438354,
        0.7244154810905457,
        1.0
      ],
      "name": "Milano95_CaliperSport_FR"
    },
    {
      "children": [
        95
      ],
      "matrix": [
        1.0,
        0.0,
        -0.0,
        0.0,
        0.0,
        1.0,
        0.0,
        0.0,
        0.0,
        0.0,
        1.0,
        0.0,
        -9.1548187697299e-08,
        -6.522555486299098e-05,
        0.19198529422283173,
        1.0
      ],
      "name": "Object_94"
    },
    {
      "mesh": 30,
      "name": "Milano95_CaliperSport_FR_RB1c_Tire_1k_0"
    },
    {
      "children": [
        97
      ],
      "matrix": [
        0.7578160166739528,
        -6.519258967242342e-08,
        3.6135483583161976e-07,
        0.0,
        -6.519247623717907e-08,
        -0.7578160166740017,
        -2.3789095835019985e-07,
        0.0,
        3.0371048197773337e-07,
        1.999418768518318e-07,
        -0.6369270086287415,
        0.0,
        -1.2978812456130981,
        0.290896475315094,
        -0.7244006991386414,
        1.0
      ],
      "name": "Milano95_CaliperSport_RL"
    },
    {
      "children": [
        98
      ],
      "matrix": [
        1.0,
        0.0,
        -0.0,
        0.0,
        0.0,
        1.0,
        0.0,
        0.0,
        0.0,
        0.0,
        1.0,
        0.0,
        -9.154821611900843e-08,
        -6.526493234559894e-05,
        0.19198529422283173,
        1.0
      ],
      "name": "Object_97"
    },
    {
      "mesh": 31,
      "name": "Milano95_CaliperSport_RL_RB1c_Tire_1k_0"
    },
    {
      "children": [
        100
      ],
      "matrix": [
        0.7578160166739528,
        -6.51926180941463e-08,
        3.613548358316198e-07,
        0.0,
        6.519255922195873e-08,
        0.7578160166740289,
        1.2346393962197345e-07,
        0.0,
        -3.0371047370425494e-07,
        -1.0376858789870158e-07,
        0.6369270086287643,
        0.0,
        -1.2978811264038086,
        0.29089707136154175,
        0.7244157195091248,
        1.0
      ],
      "name": "Milano95_CaliperSport_RR"
    },
    {
      "children": [
        101
      ],
      "matrix": [
        1.0,
        0.0,
        -0.0,
        0.0,
        0.0,
        1.0,
        0.0,
        0.0,
        0.0,
        0.0,
        1.0,
        0.0,
        -9.154815927558957e-08,
        -6.522552575916052e-05,
        0.19198529422283173,
        1.0
      ],
      "name": "Object_100"
    },
    {
      "mesh": 32,
      "name": "Milano95_CaliperSport_RR_RB1c_Tire_1k_0"
    }
  ],
  "samplers": [
    {
      "magFilter": 9729,
      "minFilter": 9987,
      "wrapS": 10497,
      "wrapT": 10497
    }
  ],
  "scene": 0,
  "scenes": [
    {
      "name": "Sketchfab_Scene",
      "nodes": [
        0
      ]
    }
  ],
  "textures": [
    {
      "sampler": 0,
      "source": 0
    },
    {
      "sampler": 0,
      "source": 1
    },
    {
      "sampler": 0,
      "source": 2
    },
    {
      "sampler": 0,
      "source": 3
    },
    {
      "sampler": 0,
      "source": 4
    },
    {
      "sampler": 0,
      "source": 5
    },
    {
      "sampler": 0,
      "source": 6
    },
    {
      "sampler": 0,
      "source": 7
    },
    {
      "sampler": 0,
      "source": 8
    },
    {
      "sampler": 0,
      "source": 9
    },
    {
      "sampler": 0,
      "source": 10
    },
    {
      "sampler": 0,
      "source": 11
    },
    {
      "sampler": 0,
      "source": 12
    },
    {
      "sampler": 0,
      "source": 13
    }
  ]
}
