{
  "accessors": [
    {
      "bufferView": 2,
      "componentType": 5126,
      "count": 255,
      "max": [
        0.7898889780044556,
        -0.9718589782714844,
        1.787153959274292
      ],
      "min": [
        -0.7898480296134949,
        -1.2259989976882935,
        -0.3330169916152954
      ],
      "type": "VEC3"
    },
    {
      "bufferView": 2,
      "byteOffset": 3060,
      "componentType": 5126,
      "count": 255,
      "max": [
        0.8715318441390991,
        0.2089039385318756,
        0.8359107971191406
      ],
      "min": [
        -0.8715624213218689,
        -0.9996331334114075,
        -0.674298107624054
      ],
      "type": "VEC3"
    },
    {
      "bufferView": 1,
      "componentType": 5126,
      "count": 255,
      "max": [
        -0.38916000723838806,
        1.989258050918579
      ],
      "min": [
        -0.9902340173721313,
        1.0097659826278687
      ],
      "type": "VEC2"
    },
    {
      "bufferView": 0,
      "componentType": 5125,
      "count": 1032,
      "type": "SCALAR"
    },
    {
      "bufferView": 2,
      "byteOffset": 6120,
      "componentType": 5126,
      "count": 138,
      "max": [
        1.0862849950790405,
        -0.7299990057945251,
        2.163270950317383
      ],
      "min": [
        -1.0863200426101685,
        -1.0861200094223022,
        1.8758939504623413
      ],
      "type": "VEC3"
    },
    {
      "bufferView": 2,
      "byteOffset": 7776,
      "componentType": 5126,
      "count": 138,
      "max": [
        0.9766943454742432,
        0.7381755113601685,
        0.9891955256462097
      ],
      "min": [
        -0.9764624834060669,
        -0.9343440532684326,
        -0.3810006380081177
      ],
      "type": "VEC3"
    },
    {
      "bufferView": 1,
      "byteOffset": 2040,
      "componentType": 5126,
      "count": 138,
      "max": [
        0.96875,
        1.995116949081421
      ],
      "min": [
        0.008918999694287777,
        1.0058590173721313
      ],
      "type": "VEC2"
    },
    {
      "bufferView": 0,
      "byteOffset": 4128,
      "componentType": 5125,
      "count": 402,
      "type": "SCALAR"
    },
    {
      "bufferView": 2,
      "byteOffset": 9432,
      "componentType": 5126,
      "count": 78,
      "max": [
        0.6952459812164307,
        -0.9596199989318848,
        -0.12433400005102158
      ],
      "min": [
        -0.695281982421875,
        -1.2272590398788452,
        -0.5662069916725159
      ],
      "type": "VEC3"
    },
    {
      "bufferView": 2,
      "byteOffset": 10368,
      "componentType": 5126,
      "count": 78,
      "max": [
        0.2643929123878479,
        -0.7480447888374329,
        -0.5299646258354187
      ],
      "min": [
        -0.26439332962036133,
        -0.8446869850158691,
        -0.6473497152328491
      ],
      "type": "VEC3"
    },
    {
      "bufferView": 1,
      "byteOffset": 3144,
      "componentType": 5126,
      "count": 78,
      "max": [
        1.0078120231628418,
        0.9951170086860657
      ],
      "min": [
        0.0078959995880723,
        0.004653990268707275
      ],
      "type": "VEC2"
    },
    {
      "bufferView": 0,
      "byteOffset": 5736,
      "componentType": 5125,
      "count": 360,
      "type": "SCALAR"
    },
    {
      "bufferView": 2,
      "byteOffset": 11304,
      "componentType": 5126,
      "count": 192,
      "max": [
        0.9264940023422241,
        -0.43657898902893066,
        -1.7053669691085815
      ],
      "min": [
        -0.9264529943466187,
        -0.9396539926528931,
        -2.194883108139038
      ],
      "type": "VEC3"
    },
    {
      "bufferView": 2,
      "byteOffset": 13608,
      "componentType": 5126,
      "count": 192,
      "max": [
        0.9728542566299438,
        0.8771308064460754,
        0.11309768259525299
      ],
      "min": [
        -0.9728674292564392,
        -0.9984553456306458,
        -0.9509198069572449
      ],
      "type": "VEC3"
    },
    {
      "bufferView": 1,
      "byteOffset": 3768,
      "componentType": 5126,
      "count": 192,
      "max": [
        0.9902340173721313,
        1.9667969942092896
      ],
      "min": [
        0.2873539924621582,
        1.015625
      ],
      "type": "VEC2"
    },
    {
      "bufferView": 0,
      "byteOffset": 7176,
      "componentType": 5125,
      "count": 528,
      "type": "SCALAR"
    },
    {
      "bufferView": 2,
      "byteOffset": 15912,
      "componentType": 5126,
      "count": 10096,
      "max": [
        1.186324954032898,
        -0.04479699954390526,
        2.6127560138702393
      ],
      "min": [
        -1.1863600015640259,
        -1.299800992012024,
        -2.3317229747772217
      ],
      "type": "VEC3"
    },
    {
      "bufferView": 2,
      "byteOffset": 137064,
      "componentType": 5126,
      "count": 10096,
      "max": [
        1.0,
        0.9999998807907104,
        1.0
      ],
      "min": [
        -1.0,
        -0.999989926815033,
        -1.0
      ],
      "type": "VEC3"
    },
    {
      "bufferView": 1,
      "byteOffset": 5304,
      "componentType": 5126,
      "count": 10096,
      "max": [
        0.9941409826278687,
        1.0
      ],
      "min": [
        -0.008643999695777893,
        0.004189014434814453
      ],
      "type": "VEC2"
    },
    {
      "bufferView": 0,
      "byteOffset": 9288,
      "componentType": 5125,
      "count": 43242,
      "type": "SCALAR"
    },
    {
      "bufferView": 2,
      "byteOffset": 258216,
      "componentType": 5126,
      "count": 3046,
      "max": [
        1.1925580501556396,
        0.0038350000977516174,
        1.8652390241622925
      ],
      "min": [
        -1.192594051361084,
        -0.8871189951896667,
        -1.8636690378189087
      ],
      "type": "VEC3"
    },
    {
      "bufferView": 2,
      "byteOffset": 294768,
      "componentType": 5126,
      "count": 3046,
      "max": [
        1.0,
        1.0,
        1.0
      ],
      "min": [
        -1.0,
        -1.0,
        -1.0
      ],
      "type": "VEC3"
    },
    {
      "bufferView": 1,
      "byteOffset": 86072,
      "componentType": 5126,
      "count": 3046,
      "max": [
        0.9951170086860657,
        0.9941409826278687
      ],
      "min": [
        0.0014220000011846423,
        0.0028949975967407227
      ],
      "type": "VEC2"
    },
    {
      "bufferView": 0,
      "byteOffset": 182256,
      "componentType": 5125,
      "count": 13452,
      "type": "SCALAR"
    }
  ],
  "asset": {
    "extras": {
      "author": "DinseyPixarCarsModels (https://sketchfab.com/DinseyPixarCarsModels)",
      "license": "CC-BY-4.0 (http://creativecommons.org/licenses/by/4.0/)",
      "source": "https://sketchfab.com/3d-models/jackson-storm-3561b33ed9ff4a869668c1bcd13e5ee4",
      "title": "Jackson Storm"
    },
    "generator": "Sketchfab-16.95.0",
    "version": "2.0"
  },
  "bufferViews": [
    {
      "buffer": 0,
      "byteLength": 236064,
      "name": "floatBufferViews",
      "target": 34963
    },
    {
      "buffer": 0,
      "byteLength": 110440,
      "byteOffset": 236064,
      "byteStride": 8,
      "name": "floatBufferViews",
      "target": 34962
    },
    {
      "buffer": 0,
      "byteLength": 331320,
      "byteOffset": 346504,
      "byteStride": 12,
      "name": "floatBufferViews",
      "target": 34962
    }
  ],
  "buffers": [
    {
      "byteLength": 677824,
      "uri": "scene.bin"
    }
  ],
  "images": [
    {
      "uri": "textures/Material.015_baseColor.png"
    },
    {
      "uri": "textures/Material.016_baseColor.png"
    },
    {
      "uri": "textures/Material.013_baseColor.jpeg"
    },
    {
      "uri": "textures/Material.013_metallicRoughness.png"
    },
    {
      "uri": "textures/Material.017_baseColor.png"
    },
    {
      "uri": "textures/Material.012_baseColor.jpeg"
    },
    {
      "uri": "textures/Material.012_metallicRoughness.png"
    },
    {
      "uri": "textures/Material.014_baseColor.png"
    }
  ],
  "materials": [
    {
      "alphaMode": "BLEND",
      "doubleSided": true,
      "name": "Material.015",
      "pbrMetallicRoughness": {
        "baseColorFactor": [
          1.0,
          1.0,
          1.0,
          0.5
        ],
        "baseColorTexture": {
          "index": 0
        },
        "metallicFactor": 0.0,
        "roughnessFactor": 0.0
      }
    },
    {
      "doubleSided": true,
      "name": "Material.016",
      "pbrMetallicRoughness": {
        "baseColorTexture": {
          "index": 1
        },
        "metallicFactor": 0.0,
        "roughnessFactor": 0.8211145618000169
      }
    },
    {
      "doubleSided": true,
      "name": "Material.013",
      "pbrMetallicRoughness": {
        "baseColorTexture": {
          "index": 2
        },
        "metallicFactor": 0.5,
        "metallicRoughnessTexture": {
          "index": 3
        }
      }
    },
    {
      "doubleSided": true,
      "name": "Material.017",
      "pbrMetallicRoughness": {
        "baseColorTexture": {
          "index": 4
        },
        "metallicFactor": 0.0,
        "roughnessFactor": 0.8211145618000169
      }
    },
    {
      "doubleSided": true,
      "name": "Material.012",
      "pbrMetallicRoughness": {
        "baseColorTexture": {
          "index": 5
        },
        "metallicFactor": 0.5,
        "metallicRoughnessTexture": {
          "index": 6
        }
      }
    },
    {
      "doubleSided": true,
      "name": "Material.014",
      "pbrMetallicRoughness": {
        "baseColorTexture": {
          "index": 7
        },
        "metallicFactor": 0.0,
        "roughnessFactor": 0.7
      }
    }
  ],
  "meshes": [
    {
      "name": "Object_2_Material.015_0",
      "primitives": [
        {
          "attributes": {
            "NORMAL": 1,
            "POSITION": 0,
            "TEXCOORD_0": 2
          },
          "indices": 3,
          "material": 0,
          "mode": 4
        }
      ]
    },
    {
      "name": "Object_3_Material.016_0",
      "primitives": [
        {
          "attributes": {
            "NORMAL": 5,
            "POSITION": 4,
            "TEXCOORD_0": 6
          },
          "indices": 7,
          "material": 1,
          "mode": 4
        }
      ]
    },
    {
      "name": "Object_4_Material.013_0",
      "primitives": [
        {
          "attributes": {
            "NORMAL": 9,
            "POSITION": 8,
            "TEXCOORD_0": 10
          },
          "indices": 11,
          "material": 2,
          "mode": 4
        }
      ]
    },
    {
      "name": "Object_5_Material.017_0",
      "primitives": [
        {
          "attributes": {
            "NORMAL": 13,
            "POSITION": 12,
            "TEXCOORD_0": 14
          },
          "indices": 15,
          "material": 3,
          "mode": 4
        }
      ]
    },
    {
      "name": "Object_6_Material.012_0",
      "primitives": [
        {
          "attributes": {
            "NORMAL": 17,
            "POSITION": 16,
            "TEXCOORD_0": 18
          },
          "indices": 19,
          "material": 4,
          "mode": 4
        }
      ]
    },
    {
      "name": "Object_7_Material.014_0",
      "primitives": [
        {
          "attributes": {
            "NORMAL": 21,
            "POSITION": 20,
            "TEXCOORD_0": 22
          },
          "indices": 23,
          "material": 5,
          "mode": 4
        }
      ]
    }
  ],
  "nodes": [
    {
      "children": [
        1
      ],
      "matrix": [
        1.0,
        0.0,
        0.0,
        0.0,
        0.0,
        2.220446049250313e-16,
        -1.0,
        0.0,
        0.0,
        1.0,
        2.220446049250313e-16,
        0.0,
        0.0,
        0.0,
        0.0,
        1.0
      ],
      "name": "Sketchfab_model"
    },
    {
      "children": [
        2
      ],
      "matrix": [
        0.009999999776482582,
        0.0,
        0.0,
        0.0,
        0.0,
        0.0,
        0.009999999776482582,
        0.0,
        0.0,
        -0.009999999776482582,
        0.0,
        0.0,
        0.0,
        0.0,
        0.0,
        1.0
      ],
      "name": "e46eb6f7d7c849e6a63151d62989d47f.fbx"
    },
    {
      "children": [
        3
      ],
      "name": "RootNode"
    },
    {
      "children": [
        4
      ],
      "matrix": [
        100.0,
        0.0,
        0.0,
        0.0,
        0.0,
        -100.00001525878795,
        1.5099582213796756e-05,
        0.0,
        0.0,
        -1.5099582213796756e-05,
        -100.00001525878795,
        0.0,
        0.0,
        0.0,
        0.0,
        1.0
      ],
      "name": "Sketchfab_model.001"
    },
    {
      "children": [
        5,
        7,
        9,
        11,
        13,
        15
      ],
      "name": "jacksonstorm.obj.cleaner.materialmerger.gles.001"
    },
    {
      "children": [
        6
      ],
      "matrix": [
        1.0,
        0.0,
        0.0,
        0.0,
        0.0,
        1.0,
        -2.646977960169688e-23,
        0.0,
        0.0,
        2.646977960169688e-23,
        1.0,
        0.0,
        0.0,
        0.0,
        0.0,
        1.0
      ],
      "name": "Object_2"
    },
    {
      "mesh": 0,
      "name": "Object_2_Material.015_0"
    },
    {
      "children": [
        8
      ],
      "matrix": [
        1.0,
        0.0,
        0.0,
        0.0,
        0.0,
        1.0,
        -2.646977960169688e-23,
        0.0,
        0.0,
        2.646977960169688e-23,
        1.0,
        0.0,
        0.0,
        0.0,
        0.0,
        1.0
      ],
      "name": "Object_3"
    },
    {
      "mesh": 1,
      "name": "Object_3_Material.016_0"
    },
    {
      "children": [
        10
      ],
      "matrix": [
        1.0,
        0.0,
        0.0,
        0.0,
        0.0,
        1.0,
        -2.646977960169688e-23,
        0.0,
        0.0,
        2.646977960169688e-23,
        1.0,
        0.0,
        0.0,
        0.0,
        0.0,
        1.0
      ],
      "name": "Object_4"
    },
    {
      "mesh": 2,
      "name": "Object_4_Material.013_0"
    },
    {
      "children": [
        12
      ],
      "matrix": [
        1.0,
        0.0,
        0.0,
        0.0,
        0.0,
        1.0,
        -2.646977960169688e-23,
        0.0,
        0.0,
        2.646977960169688e-23,
        1.0,
        0.0,
        0.0,
        0.0,
        0.0,
        1.0
      ],
      "name": "Object_5"
    },
    {
      "mesh": 3,
      "name": "Object_5_Material.017_0"
    },
    {
      "children": [
        14
      ],
      "matrix": [
        1.0,
        0.0,
        0.0,
        0.0,
        0.0,
        1.0,
        -2.646977960169688e-23,
        0.0,
        0.0,
        2.646977960169688e-23,
        1.0,
        0.0,
        0.0,
        0.0,
        0.0,
        1.0
      ],
      "name": "Object_6"
    },
    {
      "mesh": 4,
      "name": "Object_6_Material.012_0"
    },
    {
      "children": [
        16
      ],
      "matrix": [
        1.0,
        0.0,
        0.0,
        0.0,
        0.0,
        1.0,
        -2.646977960169688e-23,
        0.0,
        0.0,
        2.646977960169688e-23,
        1.0,
        0.0,
        0.0,
        0.0,
        0.0,
        1.0
      ],
      "name": "Object_7"
    },
    {
      "mesh": 5,
      "name": "Object_7_Material.014_0"
    }
  ],
  "samplers": [
    {
      "magFilter": 9729,
      "minFilter": 9987,
      "wrapS": 10497,
      "wrapT": 10497
    }
  ],
  "scene": 0,
  "scenes": [
    {
      "name": "Sketchfab_Scene",
      "nodes": [
        0
      ]
    }
  ],
  "textures": [
    {
      "sampler": 0,
      "source": 0
    },
    {
      "sampler": 0,
      "source": 1
    },
    {
      "sampler": 0,
      "source": 2
    },
    {
      "sampler": 0,
      "source": 3
    },
    {
      "sampler": 0,
      "source": 4
    },
    {
      "sampler": 0,
      "source": 5
    },
    {
      "sampler": 0,
      "source": 6
    },
    {
      "sampler": 0,
      "source": 7
    }
  ]
}
