{
  "accessors": [
    {
      "bufferView": 2,
      "componentType": 5126,
      "count": 1814,
      "max": [
        1.0085784196853638,
        0.9558823704719543,
        2.0808823108673096
      ],
      "min": [
        -1.0085784196853638,
        -0.15931372344493866,
        -2.31862735748291
      ],
      "type": "VEC3"
    },
    {
      "bufferView": 2,
      "byteOffset": 21768,
      "componentType": 5126,
      "count": 1814,
      "max": [
        1.0,
        1.0,
        0.9999852776527405
      ],
      "min": [
        -1.0,
        -1.0,
        -0.9980526566505432
      ],
      "type": "VEC3"
    },
    {
      "bufferView": 1,
      "componentType": 5126,
      "count": 1814,
      "max": [
        0.9943235516548157,
        0.9956358671188354
      ],
      "min": [
        0.0039674062281847,
        0.0012817773967981339
      ],
      "type": "VEC2"
    },
    {
      "bufferView": 0,
      "componentType": 5125,
      "count": 4659,
      "type": "SCALAR"
    },
    {
      "bufferView": 2,
      "byteOffset": 43536,
      "componentType": 5126,
      "count": 1278,
      "max": [
        0.9779411554336548,
        0.9129902124404907,
        2.063725471496582
      ],
      "min": [
        -0.9779411554336548,
        -0.0882352963089943,
        -2.183823585510254
      ],
      "type": "VEC3"
    },
    {
      "bufferView": 2,
      "byteOffset": 58872,
      "componentType": 5126,
      "count": 1278,
      "max": [
        1.0,
        1.0,
        1.0
      ],
      "min": [
        -0.9999148845672607,
        -0.999854326248169,
        -1.0
      ],
      "type": "VEC3"
    },
    {
      "bufferView": 1,
      "byteOffset": 14512,
      "componentType": 5126,
      "count": 1278,
      "max": [
        0.9970701932907104,
        0.9961546659469604
      ],
      "min": [
        0.004852443002164364,
        0.23267312347888947
      ],
      "type": "VEC2"
    },
    {
      "bufferView": 0,
      "byteOffset": 18636,
      "componentType": 5125,
      "count": 2679,
      "type": "SCALAR"
    },
    {
      "bufferView": 2,
      "byteOffset": 74208,
      "componentType": 5126,
      "count": 464,
      "max": [
        1.0,
        0.344362735748291,
        2.0539214611053467
      ],
      "min": [
        -1.0,
        -0.2512255012989044,
        -2.31862735748291
      ],
      "type": "VEC3"
    },
    {
      "bufferView": 2,
      "byteOffset": 79776,
      "componentType": 5126,
      "count": 464,
      "max": [
        1.0,
        1.0,
        1.0
      ],
      "min": [
        -1.0,
        -1.0,
        -1.0
      ],
      "type": "VEC3"
    },
    {
      "bufferView": 1,
      "byteOffset": 24736,
      "componentType": 5126,
      "count": 464,
      "max": [
        0.9912106394767761,
        0.9772636890411377
      ],
      "min": [
        0.0098574785515666,
        0.013245033100247383
      ],
      "type": "VEC2"
    },
    {
      "bufferView": 0,
      "byteOffset": 29352,
      "componentType": 5125,
      "count": 909,
      "type": "SCALAR"
    },
    {
      "bufferView": 2,
      "byteOffset": 85344,
      "componentType": 5126,
      "count": 154,
      "max": [
        0.7622548937797546,
        0.3296568691730499,
        1.9816176891326904
      ],
      "min": [
        -0.7622548937797546,
        0.23039215803146362,
        1.9264706373214722
      ],
      "type": "VEC3"
    },
    {
      "bufferView": 2,
      "byteOffset": 87192,
      "componentType": 5126,
      "count": 154,
      "max": [
        0.60700923204422,
        0.584594190120697,
        0.9994368553161621
      ],
      "min": [
        -0.683366060256958,
        -0.4688599407672882,
        0.7267855405807495
      ],
      "type": "VEC3"
    },
    {
      "bufferView": 1,
      "byteOffset": 28448,
      "componentType": 5126,
      "count": 154,
      "max": [
        0.8597369194030762,
        0.40092167258262634
      ],
      "min": [
        0.6800134181976318,
        0.22040466964244843
      ],
      "type": "VEC2"
    },
    {
      "bufferView": 0,
      "byteOffset": 32988,
      "componentType": 5125,
      "count": 324,
      "type": "SCALAR"
    },
    {
      "bufferView": 2,
      "byteOffset": 89040,
      "componentType": 5126,
      "count": 50,
      "max": [
        0.7781862616539001,
        0.47671568393707275,
        -1.9914215803146362
      ],
      "min": [
        -0.7781862616539001,
        0.38725489377975464,
        -2.037990093231201
      ],
      "type": "VEC3"
    },
    {
      "bufferView": 2,
      "byteOffset": 89640,
      "componentType": 5126,
      "count": 50,
      "max": [
        0.8783743977546692,
        0.983347475528717,
        0.8385000824928284
      ],
      "min": [
        -0.8025052547454834,
        0.07141423970460892,
        -0.9870611429214478
      ],
      "type": "VEC3"
    },
    {
      "bufferView": 1,
      "byteOffset": 29680,
      "componentType": 5126,
      "count": 50,
      "max": [
        0.6758629083633423,
        0.40061646699905396
      ],
      "min": [
        0.49494919180870056,
        0.21967223286628723
      ],
      "type": "VEC2"
    },
    {
      "bufferView": 0,
      "byteOffset": 34284,
      "componentType": 5125,
      "count": 120,
      "type": "SCALAR"
    },
    {
      "bufferView": 2,
      "byteOffset": 90240,
      "componentType": 5126,
      "count": 54,
      "max": [
        0.7781862616539001,
        0.8223039507865906,
        -1.4154411554336548
      ],
      "min": [
        -0.7781862616539001,
        0.28921568393707275,
        -2.0833332538604736
      ],
      "type": "VEC3"
    },
    {
      "bufferView": 2,
      "byteOffset": 90888,
      "componentType": 5126,
      "count": 54,
      "max": [
        0.9079588651657104,
        0.989993155002594,
        1.0
      ],
      "min": [
        -0.8501553535461426,
        0.0,
        -1.0
      ],
      "type": "VEC3"
    },
    {
      "bufferView": 1,
      "byteOffset": 30080,
      "componentType": 5126,
      "count": 54,
      "max": [
        0.7893002033233643,
        0.7213965058326721
      ],
      "min": [
        0.49494919180870056,
        0.21967223286628723
      ],
      "type": "VEC2"
    },
    {
      "bufferView": 0,
      "byteOffset": 34764,
      "componentType": 5125,
      "count": 126,
      "type": "SCALAR"
    },
    {
      "bufferView": 2,
      "byteOffset": 91536,
      "componentType": 5126,
      "count": 51,
      "max": [
        0.8406862616539001,
        0.3590686321258545,
        1.938725471496582
      ],
      "min": [
        0.7009803652763367,
        0.2598039209842682,
        -2.0796568393707275
      ],
      "type": "VEC3"
    },
    {
      "bufferView": 2,
      "byteOffset": 92148,
      "componentType": 5126,
      "count": 51,
      "max": [
        0.5716626644134521,
        0.7528248429298401,
        0.9944608211517334
      ],
      "min": [
        -0.2867526412010193,
        -0.5278224945068359,
        -0.9003668427467346
      ],
      "type": "VEC3"
    },
    {
      "bufferView": 1,
      "byteOffset": 30512,
      "componentType": 5126,
      "count": 51,
      "max": [
        0.9957579374313354,
        0.25818657875061035
      ],
      "min": [
        0.9074068665504456,
        0.16937772929668427
      ],
      "type": "VEC2"
    },
    {
      "bufferView": 0,
      "byteOffset": 35268,
      "componentType": 5125,
      "count": 102,
      "type": "SCALAR"
    },
    {
      "bufferView": 2,
      "byteOffset": 92760,
      "componentType": 5126,
      "count": 49,
      "max": [
        -0.7009803652763367,
        0.3590686321258545,
        1.9375
      ],
      "min": [
        -0.8406862616539001,
        0.2598039209842682,
        -2.0796568393707275
      ],
      "type": "VEC3"
    },
    {
      "bufferView": 2,
      "byteOffset": 93348,
      "componentType": 5126,
      "count": 49,
      "max": [
        0.2869185507297516,
        0.7026255130767822,
        0.990886926651001
      ],
      "min": [
        -0.668113112449646,
        -0.5990201830863953,
        -0.9003669619560242
      ],
      "type": "VEC3"
    },
    {
      "bufferView": 1,
      "byteOffset": 30920,
      "componentType": 5126,
      "count": 49,
      "max": [
        0.9957579374313354,
        0.25818657875061035
      ],
      "min": [
        0.9073763489723206,
        0.16937772929668427
      ],
      "type": "VEC2"
    },
    {
      "bufferView": 0,
      "byteOffset": 35676,
      "componentType": 5125,
      "count": 102,
      "type": "SCALAR"
    },
    {
      "bufferView": 2,
      "byteOffset": 93936,
      "componentType": 5126,
      "count": 34,
      "max": [
        0.7536764740943909,
        0.4583333432674408,
        -2.0110294818878174
      ],
      "min": [
        -0.7536764740943909,
        0.41299018263816833,
        -2.034313678741455
      ],
      "type": "VEC3"
    },
    {
      "bufferView": 2,
      "byteOffset": 94344,
      "componentType": 5126,
      "count": 34,
      "max": [
        0.4165688157081604,
        0.7432190775871277,
        0.7378672361373901
      ],
      "min": [
        -0.42025962471961975,
        0.3414110243320465,
        -0.916803777217865
      ],
      "type": "VEC3"
    },
    {
      "bufferView": 1,
      "byteOffset": 31312,
      "componentType": 5126,
      "count": 34,
      "max": [
        0.9170507192611694,
        0.20639668405056
      ],
      "min": [
        0.8291268944740295,
        0.11847285181283951
      ],
      "type": "VEC2"
    },
    {
      "bufferView": 0,
      "byteOffset": 36084,
      "componentType": 5125,
      "count": 60,
      "type": "SCALAR"
    },
    {
      "bufferView": 2,
      "byteOffset": 94752,
      "componentType": 5126,
      "count": 125,
      "max": [
        0.8676470518112183,
        0.8884803652763367,
        2.0232841968536377
      ],
      "min": [
        -0.8676470518112183,
        0.2242647111415863,
        -1.9803920984268188
      ],
      "type": "VEC3"
    },
    {
      "bufferView": 2,
      "byteOffset": 96252,
      "componentType": 5126,
      "count": 125,
      "max": [
        0.9321383237838745,
        0.964341402053833,
        0.9982143640518188
      ],
      "min": [
        -0.9275873899459839,
        0.01820993982255459,
        -0.3571794331073761
      ],
      "type": "VEC3"
    },
    {
      "bufferView": 1,
      "byteOffset": 31584,
      "componentType": 5126,
      "count": 125,
      "max": [
        0.9949033856391907,
        0.9927365779876709
      ],
      "min": [
        0.0006103701889514923,
        0.0072634052485227585
      ],
      "type": "VEC2"
    },
    {
      "bufferView": 0,
      "byteOffset": 36324,
      "componentType": 5125,
      "count": 288,
      "type": "SCALAR"
    },
    {
      "bufferView": 2,
      "byteOffset": 97752,
      "componentType": 5126,
      "count": 172,
      "max": [
        0.13357843458652496,
        0.39828431606292725,
        0.0036764706019312143
      ],
      "min": [
        -0.1299019604921341,
        -0.35661765933036804,
        -1.2107843160629272
      ],
      "type": "VEC3"
    },
    {
      "bufferView": 2,
      "byteOffset": 99816,
      "componentType": 5126,
      "count": 172,
      "max": [
        0.9999303221702576,
        0.9908512234687805,
        0.9966297149658203
      ],
      "min": [
        -0.9904654622077942,
        -0.9976150989532471,
        -0.9984800815582275
      ],
      "type": "VEC3"
    },
    {
      "bufferView": 1,
      "byteOffset": 32584,
      "componentType": 5126,
      "count": 172,
      "max": [
        0.6794641017913818,
        0.764946460723877
      ],
      "min": [
        0.17242957651615143,
        0.3251747190952301
      ],
      "type": "VEC2"
    },
    {
      "bufferView": 0,
      "byteOffset": 37476,
      "componentType": 5125,
      "count": 372,
      "type": "SCALAR"
    },
    {
      "bufferView": 2,
      "byteOffset": 101880,
      "componentType": 5126,
      "count": 65,
      "max": [
        0.046568628400564194,
        0.5796568393707275,
        0.0036764706019312143
      ],
      "min": [
        -0.24387255311012268,
        -0.3578431308269501,
        -1.2144607305526733
      ],
      "type": "VEC3"
    },
    {
      "bufferView": 2,
      "byteOffset": 102660,
      "componentType": 5126,
      "count": 65,
      "max": [
        0.9858766198158264,
        0.9998069405555725,
        0.9420533180236816
      ],
      "min": [
        -0.9967431426048279,
        -0.999995768070221,
        -0.9998828768730164
      ],
      "type": "VEC3"
    },
    {
      "bufferView": 1,
      "byteOffset": 33960,
      "componentType": 5126,
      "count": 65,
      "max": [
        0.8447828888893127,
        0.5545518398284912
      ],
      "min": [
        0.018005920574069023,
        0.23267312347888947
      ],
      "type": "VEC2"
    },
    {
      "bufferView": 0,
      "byteOffset": 38964,
      "componentType": 5125,
      "count": 135,
      "type": "SCALAR"
    },
    {
      "bufferView": 2,
      "byteOffset": 103440,
      "componentType": 5126,
      "count": 12,
      "max": [
        -0.08700980246067047,
        0.5649510025978088,
        -0.3223039209842682
      ],
      "min": [
        -0.23651960492134094,
        0.2904411852359772,
        -1.2144607305526733
      ],
      "type": "VEC3"
    },
    {
      "bufferView": 2,
      "byteOffset": 103584,
      "componentType": 5126,
      "count": 12,
      "max": [
        0.9275391101837158,
        0.5751749873161316,
        0.9916870594024658
      ],
      "min": [
        0.11448211222887039,
        0.05874200910329819,
        -0.01940983347594738
      ],
      "type": "VEC3"
    },
    {
      "bufferView": 1,
      "byteOffset": 34480,
      "componentType": 5126,
      "count": 12,
      "max": [
        0.9950864911079407,
        0.9927060604095459
      ],
      "min": [
        0.009643848985433578,
        0.007293923757970333
      ],
      "type": "VEC2"
    },
    {
      "bufferView": 0,
      "byteOffset": 39504,
      "componentType": 5125,
      "count": 21,
      "type": "SCALAR"
    },
    {
      "bufferView": 2,
      "byteOffset": 103728,
      "componentType": 5126,
      "count": 175,
      "max": [
        0.13970588147640228,
        0.3688725531101227,
        0.015931373462080956
      ],
      "min": [
        -0.12377450615167618,
        -0.3860294222831726,
        -1.1985293626785278
      ],
      "type": "VEC3"
    },
    {
      "bufferView": 2,
      "byteOffset": 105828,
      "componentType": 5126,
      "count": 175,
      "max": [
        0.9911412000656128,
        0.995794415473938,
        0.9359001517295837
      ],
      "min": [
        -0.999888002872467,
        -0.9977782368659973,
        -1.0
      ],
      "type": "VEC3"
    },
    {
      "bufferView": 1,
      "byteOffset": 34576,
      "componentType": 5126,
      "count": 175,
      "max": [
        0.6794946193695068,
        0.764946460723877
      ],
      "min": [
        0.17242957651615143,
        0.3251747190952301
      ],
      "type": "VEC2"
    },
    {
      "bufferView": 0,
      "byteOffset": 39588,
      "componentType": 5125,
      "count": 372,
      "type": "SCALAR"
    },
    {
      "bufferView": 2,
      "byteOffset": 107928,
      "componentType": 5126,
      "count": 65,
      "max": [
        0.2549019753932953,
        0.5502451062202454,
        0.015931373462080956
      ],
      "min": [
        -0.036764707416296005,
        -0.38725489377975464,
        -1.2022058963775635
      ],
      "type": "VEC3"
    },
    {
      "bufferView": 2,
      "byteOffset": 108708,
      "componentType": 5126,
      "count": 65,
      "max": [
        0.9968858957290649,
        0.9998143315315247,
        0.9410763382911682
      ],
      "min": [
        -0.98140949010849,
        -0.9999958276748657,
        -0.9998826384544373
      ],
      "type": "VEC3"
    },
    {
      "bufferView": 1,
      "byteOffset": 35976,
      "componentType": 5126,
      "count": 65,
      "max": [
        0.8447828888893127,
        0.5545518398284912
      ],
      "min": [
        0.018005920574069023,
        0.23267312347888947
      ],
      "type": "VEC2"
    },
    {
      "bufferView": 0,
      "byteOffset": 41076,
      "componentType": 5125,
      "count": 135,
      "type": "SCALAR"
    },
    {
      "bufferView": 2,
      "byteOffset": 109488,
      "componentType": 5126,
      "count": 12,
      "max": [
        0.24632352590560913,
        0.5355392098426819,
        -0.31004902720451355
      ],
      "min": [
        0.09681372344493866,
        0.2610294222831726,
        -1.2022058963775635
      ],
      "type": "VEC3"
    },
    {
      "bufferView": 2,
      "byteOffset": 109632,
      "componentType": 5126,
      "count": 12,
      "max": [
        -0.03939236328005791,
        0.5593945384025574,
        0.9989666938781738
      ],
      "min": [
        -0.9272063374519348,
        0.02266698330640793,
        -0.013815833255648613
      ],
      "type": "VEC3"
    },
    {
      "bufferView": 1,
      "byteOffset": 36496,
      "componentType": 5126,
      "count": 12,
      "max": [
        0.9951170086860657,
        0.9927060604095459
      ],
      "min": [
        0.009674367494881153,
        0.007293923757970333
      ],
      "type": "VEC2"
    },
    {
      "bufferView": 0,
      "byteOffset": 41616,
      "componentType": 5125,
      "count": 21,
      "type": "SCALAR"
    },
    {
      "bufferView": 2,
      "byteOffset": 109776,
      "componentType": 5126,
      "count": 360,
      "max": [
        1.6740195751190186,
        0.22058823704719543,
        0.2401960790157318
      ],
      "min": [
        -0.29411765933036804,
        -0.1360294073820114,
        -0.3921568691730499
      ],
      "type": "VEC3"
    },
    {
      "bufferView": 2,
      "byteOffset": 114096,
      "componentType": 5126,
      "count": 360,
      "max": [
        0.9979233741760254,
        0.9934287071228027,
        0.9644359350204468
      ],
      "min": [
        -0.9971087574958801,
        -0.995261549949646,
        -0.9815072417259216
      ],
      "type": "VEC3"
    },
    {
      "bufferView": 1,
      "byteOffset": 36592,
      "componentType": 5126,
      "count": 360,
      "max": [
        0.16507461667060852,
        0.9725943803787231
      ],
      "min": [
        0.011291848495602608,
        0.4365672767162323
      ],
      "type": "VEC2"
    },
    {
      "bufferView": 0,
      "byteOffset": 41700,
      "componentType": 5125,
      "count": 822,
      "type": "SCALAR"
    },
    {
      "bufferView": 2,
      "byteOffset": 118416,
      "componentType": 5126,
      "count": 30,
      "max": [
        1.156862735748291,
        0.13970588147640228,
        -0.2659313678741455
      ],
      "min": [
        0.22058823704719543,
        -0.03921568766236305,
        -0.31617647409439087
      ],
      "type": "VEC3"
    },
    {
      "bufferView": 2,
      "byteOffset": 118776,
      "componentType": 5126,
      "count": 30,
      "max": [
        0.39502936601638794,
        -0.13768842816352844,
        0.18893945217132568
      ],
      "min": [
        -0.10392548143863678,
        -0.9962378144264221,
        -0.9899495840072632
      ],
      "type": "VEC3"
    },
    {
      "bufferView": 1,
      "byteOffset": 39472,
      "componentType": 5126,
      "count": 30,
      "max": [
        0.07296975702047348,
        0.7707144618034363
      ],
      "min": [
        0.004333628341555595,
        0.40992462635040283
      ],
      "type": "VEC2"
    },
    {
      "bufferView": 0,
      "byteOffset": 44988,
      "componentType": 5125,
      "count": 72,
      "type": "SCALAR"
    },
    {
      "bufferView": 2,
      "byteOffset": 119136,
      "componentType": 5126,
      "count": 52,
      "max": [
        1.6740195751190186,
        0.1973039209842682,
        0.2450980395078659
      ],
      "min": [
        -0.29411765933036804,
        -0.1360294073820114,
        -0.2916666567325592
      ],
      "type": "VEC3"
    },
    {
      "bufferView": 2,
      "byteOffset": 119760,
      "componentType": 5126,
      "count": 52,
      "max": [
        0.08984509110450745,
        0.08304551243782043,
        0.9987675547599792
      ],
      "min": [
        -0.11743719130754471,
        -1.0,
        -0.08005538582801819
      ],
      "type": "VEC3"
    },
    {
      "bufferView": 1,
      "byteOffset": 39712,
      "componentType": 5126,
      "count": 52,
      "max": [
        0.8528397679328918,
        0.9890133142471313
      ],
      "min": [
        0.008301034569740295,
        0.003265480510890484
      ],
      "type": "VEC2"
    },
    {
      "bufferView": 0,
      "byteOffset": 45276,
      "componentType": 5125,
      "count": 102,
      "type": "SCALAR"
    },
    {
      "bufferView": 2,
      "byteOffset": 120384,
      "componentType": 5126,
      "count": 304,
      "max": [
        0.8125,
        -0.030637254938483238,
        1.2365195751190186
      ],
      "min": [
        -0.8125,
        -0.2659313678741455,
        -0.03186274692416191
      ],
      "type": "VEC3"
    },
    {
      "bufferView": 2,
      "byteOffset": 124032,
      "componentType": 5126,
      "count": 304,
      "max": [
        0.9986323714256287,
        0.9990001916885376,
        0.9968639016151428
      ],
      "min": [
        -0.9986323714256287,
        -1.0,
        -0.8005781173706055
      ],
      "type": "VEC3"
    },
    {
      "bufferView": 1,
      "byteOffset": 40128,
      "componentType": 5126,
      "count": 304,
      "max": [
        0.48072755336761475,
        0.9245887398719788
      ],
      "min": [
        0.18390454351902008,
        0.17206335067749023
      ],
      "type": "VEC2"
    },
    {
      "bufferView": 0,
      "byteOffset": 45684,
      "componentType": 5125,
      "count": 666,
      "type": "SCALAR"
    },
    {
      "bufferView": 2,
      "byteOffset": 127680,
      "componentType": 5126,
      "count": 8,
      "max": [
        0.3590686321258545,
        -0.06617647409439087,
        0.24387255311012268
      ],
      "min": [
        -0.3590686321258545,
        -0.07720588147640228,
        0.15808823704719543
      ],
      "type": "VEC3"
    },
    {
      "bufferView": 2,
      "byteOffset": 127776,
      "componentType": 5126,
      "count": 8,
      "max": [
        0.023600764572620392,
        0.9971327781677246,
        0.08588926494121552
      ],
      "min": [
        -0.023600764572620392,
        0.9961478114128113,
        0.07189807295799255
      ],
      "type": "VEC3"
    },
    {
      "bufferView": 1,
      "byteOffset": 42560,
      "componentType": 5126,
      "count": 8,
      "max": [
        0.062288276851177216,
        0.6569719314575195
      ],
      "min": [
        0.01910458691418171,
        0.573564887046814
      ],
      "type": "VEC2"
    },
    {
      "bufferView": 0,
      "byteOffset": 48348,
      "componentType": 5125,
      "count": 12,
      "type": "SCALAR"
    },
    {
      "bufferView": 2,
      "byteOffset": 127872,
      "componentType": 5126,
      "count": 709,
      "max": [
        0.19117647409439087,
        0.3602941036224365,
        0.3602941036224365
      ],
      "min": [
        -0.20098039507865906,
        -0.3602941036224365,
        -0.3602941036224365
      ],
      "type": "VEC3"
    },
    {
      "bufferView": 2,
      "byteOffset": 136380,
      "componentType": 5126,
      "count": 709,
      "max": [
        0.9324026703834534,
        0.990586519241333,
        0.9952354431152344
      ],
      "min": [
        -0.9999993443489075,
        -0.9905871748924255,
        -0.9904054999351501
      ],
      "type": "VEC3"
    },
    {
      "bufferView": 1,
      "byteOffset": 42624,
      "componentType": 5126,
      "count": 709,
      "max": [
        0.28901028633117676,
        0.21216468513011932
      ],
      "min": [
        0.001342814415693283,
        0.007446516305208206
      ],
      "type": "VEC2"
    },
    {
      "bufferView": 0,
      "byteOffset": 48396,
      "componentType": 5125,
      "count": 1365,
      "type": "SCALAR"
    },
    {
      "bufferView": 2,
      "byteOffset": 144888,
      "componentType": 5126,
      "count": 325,
      "max": [
        0.19117647409439087,
        0.3602941036224365,
        0.3602941036224365
      ],
      "min": [
        -0.18995098769664764,
        -0.3602941036224365,
        -0.3602941036224365
      ],
      "type": "VEC3"
    },
    {
      "bufferView": 2,
      "byteOffset": 148788,
      "componentType": 5126,
      "count": 325,
      "max": [
        0.9324517250061035,
        0.990586519241333,
        0.9970887899398804
      ],
      "min": [
        -0.9999876022338867,
        -0.9905871748924255,
        -0.9904054999351501
      ],
      "type": "VEC3"
    },
    {
      "bufferView": 1,
      "byteOffset": 48296,
      "componentType": 5126,
      "count": 325,
      "max": [
        0.28904080390930176,
        0.21201208233833313
      ],
      "min": [
        0.001342814415693283,
        0.007446516305208206
      ],
      "type": "VEC2"
    },
    {
      "bufferView": 0,
      "byteOffset": 53856,
      "componentType": 5125,
      "count": 540,
      "type": "SCALAR"
    },
    {
      "bufferView": 2,
      "byteOffset": 152688,
      "componentType": 5126,
      "count": 136,
      "max": [
        -0.16789215803146362,
        0.29901960492134094,
        0.29901960492134094
      ],
      "min": [
        -0.20098039507865906,
        -0.29901960492134094,
        -0.29901960492134094
      ],
      "type": "VEC3"
    },
    {
      "bufferView": 2,
      "byteOffset": 154320,
      "componentType": 5126,
      "count": 136,
      "max": [
        -0.26311737298965454,
        0.9547870755195618,
        0.915061354637146
      ],
      "min": [
        -1.0,
        -0.9547870755195618,
        -0.964763879776001
      ],
      "type": "VEC3"
    },
    {
      "bufferView": 1,
      "byteOffset": 50896,
      "componentType": 5126,
      "count": 136,
      "max": [
        0.491531103849411,
        0.2141178697347641
      ],
      "min": [
        0.28199103474617004,
        0.004577776417136192
      ],
      "type": "VEC2"
    },
    {
      "bufferView": 0,
      "byteOffset": 56016,
      "componentType": 5125,
      "count": 330,
      "type": "SCALAR"
    },
    {
      "bufferView": 2,
      "byteOffset": 155952,
      "componentType": 5126,
      "count": 408,
      "max": [
        0.19117647409439087,
        0.3602941036224365,
        0.3602941036224365
      ],
      "min": [
        -0.20098039507865906,
        -0.3602941036224365,
        -0.3602941036224365
      ],
      "type": "VEC3"
    },
    {
      "bufferView": 2,
      "byteOffset": 160848,
      "componentType": 5126,
      "count": 408,
      "max": [
        0.9324026703834534,
        0.9970247149467468,
        0.9970887899398804
      ],
      "min": [
        -0.9999875426292419,
        -0.9970887899398804,
        -0.9904054999351501
      ],
      "type": "VEC3"
    },
    {
      "bufferView": 1,
      "byteOffset": 51984,
      "componentType": 5126,
      "count": 408,
      "max": [
        0.7095553278923035,
        0.2141483873128891
      ],
      "min": [
        0.001342814415693283,
        0.004608294926583767
      ],
      "type": "VEC2"
    },
    {
      "bufferView": 0,
      "byteOffset": 57336,
      "componentType": 5125,
      "count": 750,
      "type": "SCALAR"
    },
    {
      "bufferView": 2,
      "byteOffset": 165744,
      "componentType": 5126,
      "count": 55,
      "max": [
        -0.16789215803146362,
        0.0625,
        0.05882352963089943
      ],
      "min": [
        -0.19975490868091583,
        -0.0625,
        -0.05882352963089943
      ],
      "type": "VEC3"
    },
    {
      "bufferView": 2,
      "byteOffset": 166404,
      "componentType": 5126,
      "count": 55,
      "max": [
        -0.17533865571022034,
        0.9547870755195618,
        0.915061354637146
      ],
      "min": [
        -1.0,
        -0.9455544948577881,
        -0.915061354637146
      ],
      "type": "VEC3"
    },
    {
      "bufferView": 1,
      "byteOffset": 55248,
      "componentType": 5126,
      "count": 55,
      "max": [
        0.6257209777832031,
        0.13129062950611115
      ],
      "min": [
        0.5838801264762878,
        0.0873744934797287
      ],
      "type": "VEC2"
    },
    {
      "bufferView": 0,
      "byteOffset": 60336,
      "componentType": 5125,
      "count": 120,
      "type": "SCALAR"
    },
    {
      "bufferView": 2,
      "byteOffset": 167064,
      "componentType": 5126,
      "count": 709,
      "max": [
        0.19117647409439087,
        0.3602941036224365,
        0.3602941036224365
      ],
      "min": [
        -0.20098039507865906,
        -0.3602941036224365,
        -0.3602941036224365
      ],
      "type": "VEC3"
    },
    {
      "bufferView": 2,
      "byteOffset": 175572,
      "componentType": 5126,
      "count": 709,
      "max": [
        0.9324026703834534,
        0.990586519241333,
        0.9952354431152344
      ],
      "min": [
        -0.9999993443489075,
        -0.9905871748924255,
        -0.9904054999351501
      ],
      "type": "VEC3"
    },
    {
      "bufferView": 1,
      "byteOffset": 55688,
      "componentType": 5126,
      "count": 709,
      "max": [
        0.28901028633117676,
        0.21216468513011932
      ],
      "min": [
        0.001342814415693283,
        0.007446516305208206
      ],
      "type": "VEC2"
    },
    {
      "bufferView": 0,
      "byteOffset": 60816,
      "componentType": 5125,
      "count": 1365,
      "type": "SCALAR"
    }
  ],
  "asset": {
    "extras": {
      "author": "amogusstrikesback2 (https://sketchfab.com/amogusstrikesback2)",
      "license": "CC-BY-4.0 (http://creativecommons.org/licenses/by/4.0/)",
      "source": "https://sketchfab.com/3d-models/factory-sports-burnout-dominator-590b73f117a249cd942e3d67e02bca9a",
      "title": "factory sports (burnout dominator)"
    },
    "generator": "Sketchfab-17.8.0",
    "version": "2.0"
  },
  "bufferViews": [
    {
      "buffer": 0,
      "byteLength": 66276,
      "name": "floatBufferViews",
      "target": 34963
    },
    {
      "buffer": 0,
      "byteLength": 61360,
      "byteOffset": 66276,
      "byteStride": 8,
      "name": "floatBufferViews",
      "target": 34962
    },
    {
      "buffer": 0,
      "byteLength": 184080,
      "byteOffset": 127636,
      "byteStride": 12,
      "name": "floatBufferViews",
      "target": 34962
    }
  ],
  "buffers": [
    {
      "byteLength": 311716,
      "uri": "scene.bin"
    }
  ],
  "images": [
    {
      "uri": "textures/Car2_hd_mesh_0_submesh_0_baseColor.png"
    },
    {
      "uri": "textures/Car2_hd_mesh_0_submesh_2_baseColor.png"
    }
  ],
  "materials": [
    {
      "doubleSided": true,
      "name": "Car2_hd_mesh_0_submesh_0",
      "pbrMetallicRoughness": {
        "baseColorTexture": {
          "index": 0
        },
        "metallicFactor": 0.0,
        "roughnessFactor": 0.0
      }
    },
    {
      "doubleSided": true,
      "name": "Car2_hd_mesh_0_submesh_1",
      "pbrMetallicRoughness": {
        "baseColorTexture": {
          "index": 0
        },
        "metallicFactor": 0.0,
        "roughnessFactor": 0.8040408205773457
      }
    },
    {
      "doubleSided": true,
      "name": "Car2_hd_mesh_0_submesh_2",
      "pbrMetallicRoughness": {
        "baseColorTexture": {
          "index": 1
        },
        "metallicFactor": 0.0,
        "roughnessFactor": 0.8040408205773457
      }
    },
    {
      "doubleSided": true,
      "name": "Car2_hd_mesh_0_submesh_3",
      "pbrMetallicRoughness": {
        "baseColorTexture": {
          "index": 0
        },
        "metallicFactor": 0.0,
        "roughnessFactor": 0.8040408205773457
      }
    },
    {
      "doubleSided": true,
      "name": "Car2_hd_mesh_0_submesh_4",
      "pbrMetallicRoughness": {
        "baseColorTexture": {
          "index": 0
        },
        "metallicFactor": 0.0,
        "roughnessFactor": 0.8040408205773457
      }
    },
    {
      "doubleSided": true,
      "name": "Car2_hd_mesh_0_submesh_5",
      "pbrMetallicRoughness": {
        "baseColorTexture": {
          "index": 0
        },
        "metallicFactor": 0.0,
        "roughnessFactor": 0.8040408205773457
      }
    },
    {
      "doubleSided": true,
      "name": "Car2_hd_mesh_0_submesh_6",
      "pbrMetallicRoughness": {
        "baseColorTexture": {
          "index": 0
        },
        "metallicFactor": 0.0,
        "roughnessFactor": 0.8040408205773457
      }
    },
    {
      "doubleSided": true,
      "name": "Car2_hd_mesh_0_submesh_7",
      "pbrMetallicRoughness": {
        "baseColorTexture": {
          "index": 0
        },
        "metallicFactor": 0.0,
        "roughnessFactor": 0.8040408205773457
      }
    },
    {
      "doubleSided": true,
      "name": "Car2_hd_mesh_0_submesh_8",
      "pbrMetallicRoughness": {
        "baseColorTexture": {
          "index": 0
        },
        "metallicFactor": 0.0,
        "roughnessFactor": 0.8040408205773457
      }
    },
    {
      "alphaMode": "BLEND",
      "doubleSided": true,
      "name": "Car2_hd_mesh_0_submesh_9",
      "pbrMetallicRoughness": {
        "baseColorFactor": [
          0.0,
          0.0,
          0.0,
          0.5
        ],
        "metallicFactor": 0.0,
        "roughnessFactor": 0.0
      }
    },
    {
      "doubleSided": true,
      "name": "Car2_hd_mesh_1_submesh_0",
      "pbrMetallicRoughness": {
        "baseColorTexture": {
          "index": 0
        },
        "metallicFactor": 0.0,
        "roughnessFactor": 0.0
      }
    },
    {
      "doubleSided": true,
      "name": "Car2_hd_mesh_1_submesh_1",
      "pbrMetallicRoughness": {
        "baseColorTexture": {
          "index": 0
        },
        "metallicFactor": 0.0,
        "roughnessFactor": 0.8040408205773457
      }
    },
    {
      "alphaMode": "BLEND",
      "doubleSided": true,
      "name": "Car2_hd_mesh_1_submesh_2",
      "pbrMetallicRoughness": {
        "baseColorFactor": [
          0.0,
          0.0,
          0.0,
          0.5
        ],
        "metallicFactor": 0.0,
        "roughnessFactor": 0.0
      }
    },
    {
      "doubleSided": true,
      "name": "Car2_hd_mesh_2_submesh_0",
      "pbrMetallicRoughness": {
        "baseColorTexture": {
          "index": 0
        },
        "metallicFactor": 0.0,
        "roughnessFactor": 0.0
      }
    },
    {
      "doubleSided": true,
      "name": "Car2_hd_mesh_2_submesh_1",
      "pbrMetallicRoughness": {
        "baseColorTexture": {
          "index": 0
        },
        "metallicFactor": 0.0,
        "roughnessFactor": 0.8040408205773457
      }
    },
    {
      "alphaMode": "BLEND",
      "doubleSided": true,
      "name": "Car2_hd_mesh_2_submesh_2",
      "pbrMetallicRoughness": {
        "baseColorFactor": [
          0.0,
          0.0,
          0.0,
          0.5
        ],
        "metallicFactor": 0.0,
        "roughnessFactor": 0.0
      }
    },
    {
      "doubleSided": true,
      "name": "Car2_hd_mesh_3_submesh_0",
      "pbrMetallicRoughness": {
        "baseColorTexture": {
          "index": 0
        },
        "metallicFactor": 0.0,
        "roughnessFactor": 0.0
      }
    },
    {
      "doubleSided": true,
      "name": "Car2_hd_mesh_3_submesh_1",
      "pbrMetallicRoughness": {
        "baseColorTexture": {
          "index": 0
        },
        "metallicFactor": 0.0,
        "roughnessFactor": 0.8040408205773457
      }
    },
    {
      "doubleSided": true,
      "name": "Car2_hd_mesh_3_submesh_2",
      "pbrMetallicRoughness": {
        "baseColorTexture": {
          "index": 1
        },
        "metallicFactor": 0.0,
        "roughnessFactor": 0.8040408205773457
      }
    },
    {
      "doubleSided": true,
      "name": "Car2_hd_mesh_4_submesh_0",
      "pbrMetallicRoughness": {
        "baseColorTexture": {
          "index": 0
        },
        "metallicFactor": 0.0,
        "roughnessFactor": 0.0
      }
    },
    {
      "doubleSided": true,
      "name": "Car2_hd_mesh_4_submesh_1",
      "pbrMetallicRoughness": {
        "baseColorTexture": {
          "index": 0
        },
        "metallicFactor": 0.0,
        "roughnessFactor": 0.8040408205773457
      }
    },
    {
      "doubleSided": true,
      "name": "Car2_hd_mesh_5_submesh_0",
      "pbrMetallicRoughness": {
        "baseColorTexture": {
          "index": 0
        },
        "metallicFactor": 0.0,
        "roughnessFactor": 0.8040408205773457
      }
    },
    {
      "doubleSided": true,
      "name": "Car2_hd_mesh_6_submesh_0",
      "pbrMetallicRoughness": {
        "baseColorTexture": {
          "index": 0
        },
        "metallicFactor": 0.0,
        "roughnessFactor": 0.8040408205773457
      }
    },
    {
      "doubleSided": true,
      "name": "Car2_hd_mesh_6_submesh_1",
      "pbrMetallicRoughness": {
        "baseColorTexture": {
          "index": 0
        },
        "metallicFactor": 0.0,
        "roughnessFactor": 0.8040408205773457
      }
    },
    {
      "doubleSided": true,
      "name": "Car2_hd_mesh_7_submesh_0",
      "pbrMetallicRoughness": {
        "baseColorTexture": {
          "index": 0
        },
        "metallicFactor": 0.0,
        "roughnessFactor": 0.8040408205773457
      }
    },
    {
      "doubleSided": true,
      "name": "Car2_hd_mesh_7_submesh_1",
      "pbrMetallicRoughness": {
        "baseColorTexture": {
          "index": 0
        },
        "metallicFactor": 0.0,
        "roughnessFactor": 0.8040408205773457
      }
    }
  ],
  "meshes": [
    {
      "name": "Car2_hd_mesh_0_Car2_hd_mesh_0_submesh_0_0",
      "primitives": [
        {
          "attributes": {
            "NORMAL": 1,
            "POSITION": 0,
            "TEXCOORD_0": 2
          },
          "indices": 3,
          "material": 0,
          "mode": 4
        }
      ]
    },
    {
      "name": "Car2_hd_mesh_0_Car2_hd_mesh_0_submesh_1_0",
      "primitives": [
        {
          "attributes": {
            "NORMAL": 5,
            "POSITION": 4,
            "TEXCOORD_0": 6
          },
          "indices": 7,
          "material": 1,
          "mode": 4
        }
      ]
    },
    {
      "name": "Car2_hd_mesh_0_Car2_hd_mesh_0_submesh_2_0",
      "primitives": [
        {
          "attributes": {
            "NORMAL": 9,
            "POSITION": 8,
            "TEXCOORD_0": 10
          },
          "indices": 11,
          "material": 2,
          "mode": 4
        }
      ]
    },
    {
      "name": "Car2_hd_mesh_0_Car2_hd_mesh_0_submesh_3_0",
      "primitives": [
        {
          "attributes": {
            "NORMAL": 13,
            "POSITION": 12,
            "TEXCOORD_0": 14
          },
          "indices": 15,
          "material": 3,
          "mode": 4
        }
      ]
    },
    {
      "name": "Car2_hd_mesh_0_Car2_hd_mesh_0_submesh_4_0",
      "primitives": [
        {
          "attributes": {
            "NORMAL": 17,
            "POSITION": 16,
            "TEXCOORD_0": 18
          },
          "indices": 19,
          "material": 4,
          "mode": 4
        }
      ]
    },
    {
      "name": "Car2_hd_mesh_0_Car2_hd_mesh_0_submesh_5_0",
      "primitives": [
        {
          "attributes": {
            "NORMAL": 21,
            "POSITION": 20,
            "TEXCOORD_0": 22
          },
          "indices": 23,
          "material": 5,
          "mode": 4
        }
      ]
    },
    {
      "name": "Car2_hd_mesh_0_Car2_hd_mesh_0_submesh_6_0",
      "primitives": [
        {
          "attributes": {
            "NORMAL": 25,
            "POSITION": 24,
            "TEXCOORD_0": 26
          },
          "indices": 27,
          "material": 6,
          "mode": 4
        }
      ]
    },
    {
      "name": "Car2_hd_mesh_0_Car2_hd_mesh_0_submesh_7_0",
      "primitives": [
        {
          "attributes": {
            "NORMAL": 29,
            "POSITION": 28,
            "TEXCOORD_0": 30
          },
          "indices": 31,
          "material": 7,
          "mode": 4
        }
      ]
    },
    {
      "name": "Car2_hd_mesh_0_Car2_hd_mesh_0_submesh_8_0",
      "primitives": [
        {
          "attributes": {
            "NORMAL": 33,
            "POSITION": 32,
            "TEXCOORD_0": 34
          },
          "indices": 35,
          "material": 8,
          "mode": 4
        }
      ]
    },
    {
      "name": "Car2_hd_mesh_0_Car2_hd_mesh_0_submesh_9_0",
      "primitives": [
        {
          "attributes": {
            "NORMAL": 37,
            "POSITION": 36,
            "TEXCOORD_0": 38
          },
          "indices": 39,
          "material": 9,
          "mode": 4
        }
      ]
    },
    {
      "name": "Car2_hd_mesh_1_Car2_hd_mesh_1_submesh_0_0",
      "primitives": [
        {
          "attributes": {
            "NORMAL": 41,
            "POSITION": 40,
            "TEXCOORD_0": 42
          },
          "indices": 43,
          "material": 10,
          "mode": 4
        }
      ]
    },
    {
      "name": "Car2_hd_mesh_1_Car2_hd_mesh_1_submesh_1_0",
      "primitives": [
        {
          "attributes": {
            "NORMAL": 45,
            "POSITION": 44,
            "TEXCOORD_0": 46
          },
          "indices": 47,
          "material": 11,
          "mode": 4
        }
      ]
    },
    {
      "name": "Car2_hd_mesh_1_Car2_hd_mesh_1_submesh_2_0",
      "primitives": [
        {
          "attributes": {
            "NORMAL": 49,
            "POSITION": 48,
            "TEXCOORD_0": 50
          },
          "indices": 51,
          "material": 12,
          "mode": 4
        }
      ]
    },
    {
      "name": "Car2_hd_mesh_2_Car2_hd_mesh_2_submesh_0_0",
      "primitives": [
        {
          "attributes": {
            "NORMAL": 53,
            "POSITION": 52,
            "TEXCOORD_0": 54
          },
          "indices": 55,
          "material": 13,
          "mode": 4
        }
      ]
    },
    {
      "name": "Car2_hd_mesh_2_Car2_hd_mesh_2_submesh_1_0",
      "primitives": [
        {
          "attributes": {
            "NORMAL": 57,
            "POSITION": 56,
            "TEXCOORD_0": 58
          },
          "indices": 59,
          "material": 14,
          "mode": 4
        }
      ]
    },
    {
      "name": "Car2_hd_mesh_2_Car2_hd_mesh_2_submesh_2_0",
      "primitives": [
        {
          "attributes": {
            "NORMAL": 61,
            "POSITION": 60,
            "TEXCOORD_0": 62
          },
          "indices": 63,
          "material": 15,
          "mode": 4
        }
      ]
    },
    {
      "name": "Car2_hd_mesh_3_Car2_hd_mesh_3_submesh_0_0",
      "primitives": [
        {
          "attributes": {
            "NORMAL": 65,
            "POSITION": 64,
            "TEXCOORD_0": 66
          },
          "indices": 67,
          "material": 16,
          "mode": 4
        }
      ]
    },
    {
      "name": "Car2_hd_mesh_3_Car2_hd_mesh_3_submesh_1_0",
      "primitives": [
        {
          "attributes": {
            "NORMAL": 69,
            "POSITION": 68,
            "TEXCOORD_0": 70
          },
          "indices": 71,
          "material": 17,
          "mode": 4
        }
      ]
    },
    {
      "name": "Car2_hd_mesh_3_Car2_hd_mesh_3_submesh_2_0",
      "primitives": [
        {
          "attributes": {
            "NORMAL": 73,
            "POSITION": 72,
            "TEXCOORD_0": 74
          },
          "indices": 75,
          "material": 18,
          "mode": 4
        }
      ]
    },
    {
      "name": "Car2_hd_mesh_4_Car2_hd_mesh_4_submesh_0_0",
      "primitives": [
        {
          "attributes": {
            "NORMAL": 77,
            "POSITION": 76,
            "TEXCOORD_0": 78
          },
          "indices": 79,
          "material": 19,
          "mode": 4
        }
      ]
    },
    {
      "name": "Car2_hd_mesh_4_Car2_hd_mesh_4_submesh_1_0",
      "primitives": [
        {
          "attributes": {
            "NORMAL": 81,
            "POSITION": 80,
            "TEXCOORD_0": 82
          },
          "indices": 83,
          "material": 20,
          "mode": 4
        }
      ]
    },
    {
      "name": "Car2_hd_mesh_5_Car2_hd_mesh_5_submesh_0_0",
      "primitives": [
        {
          "attributes": {
            "NORMAL": 85,
            "POSITION": 84,
            "TEXCOORD_0": 86
          },
          "indices": 87,
          "material": 21,
          "mode": 4
        }
      ]
    },
    {
      "name": "Car2_hd_mesh_6_Car2_hd_mesh_6_submesh_0_0",
      "primitives": [
        {
          "attributes": {
            "NORMAL": 89,
            "POSITION": 88,
            "TEXCOORD_0": 90
          },
          "indices": 91,
          "material": 22,
          "mode": 4
        }
      ]
    },
    {
      "name": "Car2_hd_mesh_6_Car2_hd_mesh_6_submesh_1_0",
      "primitives": [
        {
          "attributes": {
            "NORMAL": 93,
            "POSITION": 92,
            "TEXCOORD_0": 94
          },
          "indices": 95,
          "material": 23,
          "mode": 4
        }
      ]
    },
    {
      "name": "Car2_hd_mesh_7_Car2_hd_mesh_7_submesh_0_0",
      "primitives": [
        {
          "attributes": {
            "NORMAL": 97,
            "POSITION": 96,
            "TEXCOORD_0": 98
          },
          "indices": 99,
          "material": 24,
          "mode": 4
        }
      ]
    },
    {
      "name": "Car2_hd_mesh_7_Car2_hd_mesh_7_submesh_1_0",
      "primitives": [
        {
          "attributes": {
            "NORMAL": 101,
            "POSITION": 100,
            "TEXCOORD_0": 102
          },
          "indices": 103,
          "material": 25,
          "mode": 4
        }
      ]
    },
    {
      "name": "Car2_hd_mesh_5.001_Car2_hd_mesh_5_submesh_0_0",
      "primitives": [
        {
          "attributes": {
            "NORMAL": 105,
            "POSITION": 104,
            "TEXCOORD_0": 106
          },
          "indices": 107,
          "material": 21,
          "mode": 4
        }
      ]
    }
  ],
  "nodes": [
    {
      "children": [
        1
      ],
      "matrix": [
        1.0,
        0.0,
        0.0,
        0.0,
        0.0,
        2.220446049250313e-16,
        -1.0,
        0.0,
        0.0,
        1.0,
        2.220446049250313e-16,
        0.0,
        0.0,
        0.0,
        0.0,
        1.0
      ],
      "name": "Sketchfab_model"
    },
    {
      "children": [
        2
      ],
      "matrix": [
        0.009999999776482582,
        0.0,
        0.0,
        0.0,
        0.0,
        0.0,
        0.009999999776482582,
        0.0,
        0.0,
        -0.009999999776482582,
        0.0,
        0.0,
        0.0,
        0.0,
        0.0,
        1.0
      ],
      "name": "Car2_hd.fbx"
    },
    {
      "children": [
        3,
        14,
        18,
        22,
        26,
        29,
        31,
        34,
        37
      ],
      "name": "RootNode"
    },
    {
      "children": [
        4,
        5,
        6,
        7,
        8,
        9,
        10,
        11,
        12,
        13
      ],
      "matrix": [
        100.0,
        0.0,
        0.0,
        0.0,
        0.0,
        99.99999999999866,
        1.6292067073209114e-05,
        0.0,
        0.0,
        -1.6292067073209114e-05,
        99.99999999999866,
        0.0,
        0.0,
        35.96417999267578,
        1.572044197928335e-06,
        1.0
      ],
      "name": "Car2_hd_mesh_0"
    },
    {
      "mesh": 0,
      "name": "Car2_hd_mesh_0_Car2_hd_mesh_0_submesh_0_0"
    },
    {
      "mesh": 1,
      "name": "Car2_hd_mesh_0_Car2_hd_mesh_0_submesh_1_0"
    },
    {
      "mesh": 2,
      "name": "Car2_hd_mesh_0_Car2_hd_mesh_0_submesh_2_0"
    },
    {
      "mesh": 3,
      "name": "Car2_hd_mesh_0_Car2_hd_mesh_0_submesh_3_0"
    },
    {
      "mesh": 4,
      "name": "Car2_hd_mesh_0_Car2_hd_mesh_0_submesh_4_0"
    },
    {
      "mesh": 5,
      "name": "Car2_hd_mesh_0_Car2_hd_mesh_0_submesh_5_0"
    },
    {
      "mesh": 6,
      "name": "Car2_hd_mesh_0_Car2_hd_mesh_0_submesh_6_0"
    },
    {
      "mesh": 7,
      "name": "Car2_hd_mesh_0_Car2_hd_mesh_0_submesh_7_0"
    },
    {
      "mesh": 8,
      "name": "Car2_hd_mesh_0_Car2_hd_mesh_0_submesh_8_0"
    },
    {
      "mesh": 9,
      "name": "Car2_hd_mesh_0_Car2_hd_mesh_0_submesh_9_0"
    },
    {
      "children": [
        15,
        16,
        17
      ],
      "matrix": [
        100.0,
        0.0,
        0.0,
        0.0,
        0.0,
        99.99999999999866,
        1.6292067073209114e-05,
        0.0,
        0.0,
        -1.6292067073209114e-05,
        99.99999999999866,
        0.0,
        84.75112915039063,
        64.58365631103516,
        59.863887786865234,
        1.0
      ],
      "name": "Car2_hd_mesh_1"
    },
    {
      "mesh": 10,
      "name": "Car2_hd_mesh_1_Car2_hd_mesh_1_submesh_0_0"
    },
    {
      "mesh": 11,
      "name": "Car2_hd_mesh_1_Car2_hd_mesh_1_submesh_1_0"
    },
    {
      "mesh": 12,
      "name": "Car2_hd_mesh_1_Car2_hd_mesh_1_submesh_2_0"
    },
    {
      "children": [
        19,
        20,
        21
      ],
      "matrix": [
        100.0,
        0.0,
        0.0,
        0.0,
        0.0,
        99.99999999999866,
        1.6292067073209114e-05,
        0.0,
        0.0,
        -1.6292067073209114e-05,
        99.99999999999866,
        0.0,
        -85.78124237060547,
        67.51179504394531,
        58.646358489990234,
        1.0
      ],
      "name": "Car2_hd_mesh_2"
    },
    {
      "mesh": 13,
      "name": "Car2_hd_mesh_2_Car2_hd_mesh_2_submesh_0_0"
    },
    {
      "mesh": 14,
      "name": "Car2_hd_mesh_2_Car2_hd_mesh_2_submesh_1_0"
    },
    {
      "mesh": 15,
      "name": "Car2_hd_mesh_2_Car2_hd_mesh_2_submesh_2_0"
    },
    {
      "children": [
        23,
        24,
        25
      ],
      "matrix": [
        100.0,
        0.0,
        0.0,
        0.0,
        0.0,
        99.99999999999866,
        1.6292067073209114e-05,
        0.0,
        0.0,
        -1.6292067073209114e-05,
        99.99999999999866,
        0.0,
        -68.71257019042969,
        35.96418762207031,
        -191.9147491455078,
        1.0
      ],
      "name": "Car2_hd_mesh_3"
    },
    {
      "mesh": 16,
      "name": "Car2_hd_mesh_3_Car2_hd_mesh_3_submesh_0_0"
    },
    {
      "mesh": 17,
      "name": "Car2_hd_mesh_3_Car2_hd_mesh_3_submesh_1_0"
    },
    {
      "mesh": 18,
      "name": "Car2_hd_mesh_3_Car2_hd_mesh_3_submesh_2_0"
    },
    {
      "children": [
        27,
        28
      ],
      "matrix": [
        100.0,
        0.0,
        0.0,
        0.0,
        0.0,
        99.99999999999866,
        1.6292067073209114e-05,
        0.0,
        0.0,
        -1.6292067073209114e-05,
        99.99999999999866,
        0.0,
        0.0,
        96.90682220458984,
        83.40587615966797,
        1.0
      ],
      "name": "Car2_hd_mesh_4"
    },
    {
      "mesh": 19,
      "name": "Car2_hd_mesh_4_Car2_hd_mesh_4_submesh_0_0"
    },
    {
      "mesh": 20,
      "name": "Car2_hd_mesh_4_Car2_hd_mesh_4_submesh_1_0"
    },
    {
      "children": [
        30
      ],
      "matrix": [
        100.0,
        0.0,
        0.0,
        0.0,
        0.0,
        99.99999999999866,
        1.6292067073209114e-05,
        0.0,
        0.0,
        -1.6292067073209114e-05,
        99.99999999999866,
        0.0,
        -76.8846664428711,
        35.96417236328125,
        137.32070922851563,
        1.0
      ],
      "name": "Car2_hd_mesh_5"
    },
    {
      "mesh": 21,
      "name": "Car2_hd_mesh_5_Car2_hd_mesh_5_submesh_0_0"
    },
    {
      "children": [
        32,
        33
      ],
      "matrix": [
        100.0,
        0.0,
        0.0,
        0.0,
        0.0,
        99.99999999999866,
        1.6292067073209114e-05,
        0.0,
        0.0,
        -1.6292067073209114e-05,
        99.99999999999866,
        0.0,
        -76.8846664428711,
        35.96418380737305,
        -136.542724609375,
        1.0
      ],
      "name": "Car2_hd_mesh_6"
    },
    {
      "mesh": 22,
      "name": "Car2_hd_mesh_6_Car2_hd_mesh_6_submesh_0_0"
    },
    {
      "mesh": 23,
      "name": "Car2_hd_mesh_6_Car2_hd_mesh_6_submesh_1_0"
    },
    {
      "children": [
        35,
        36
      ],
      "matrix": [
        -99.99999999987456,
        8.74227766958311e-06,
        -0.00015815072737065543,
        0.0,
        8.742289609619564e-06,
        99.99999999999933,
        -7.549775927786637e-06,
        0.0,
        0.000158150726710632,
        -7.549789753771773e-06,
        -99.99999999987466,
        0.0,
        76.76080322265625,
        35.96418380737305,
        -136.542724609375,
        1.0
      ],
      "name": "Car2_hd_mesh_7"
    },
    {
      "mesh": 24,
      "name": "Car2_hd_mesh_7_Car2_hd_mesh_7_submesh_0_0"
    },
    {
      "mesh": 25,
      "name": "Car2_hd_mesh_7_Car2_hd_mesh_7_submesh_1_0"
    },
    {
      "children": [
        38
      ],
      "matrix": [
        -99.99999999987456,
        8.74227766958311e-06,
        -0.00015815072737065543,
        0.0,
        8.742289609619564e-06,
        99.99999999999933,
        -7.549775927786637e-06,
        0.0,
        0.000158150726710632,
        -7.549789753771773e-06,
        -99.99999999987466,
        0.0,
        76.76080322265625,
        35.96417236328125,
        137.32070922851563,
        1.0
      ],
      "name": "Car2_hd_mesh_5.001"
    },
    {
      "mesh": 26,
      "name": "Car2_hd_mesh_5.001_Car2_hd_mesh_5_submesh_0_0"
    }
  ],
  "samplers": [
    {
      "magFilter": 9729,
      "minFilter": 9987,
      "wrapS": 10497,
      "wrapT": 10497
    }
  ],
  "scene": 0,
  "scenes": [
    {
      "name": "Sketchfab_Scene",
      "nodes": [
        0
      ]
    }
  ],
  "textures": [
    {
      "sampler": 0,
      "source": 0
    },
    {
      "sampler": 0,
      "source": 1
    }
  ]
}
